/* XPM */
static char *autumn[] = {
/* columns rows colors chars-per-pixel */
"64 64 233 2 ",
"   c #000000",
".  c #080000",
"X  c #150500",
"o  c #240000",
"O  c #2B0300",
"+  c #340000",
"@  c #3D0200",
"#  c #370900",
"$  c #3D0A00",
"%  c #341300",
"&  c #440300",
"*  c #4D0400",
"=  c #440B00",
"-  c #4C0B00",
";  c #510600",
":  c #5A0400",
">  c #540A00",
",  c #5A0D00",
"<  c #441300",
"1  c #4D1200",
"2  c #481800",
"3  c #541300",
"4  c #5C1200",
"5  c #521B00",
"6  c #5C1900",
"7  c #650600",
"8  c #6D0500",
"9  c #640D00",
"0  c #6C0C00",
"q  c #720400",
"w  c #740A00",
"e  c #7B0B00",
"r  c #621400",
"t  c #6C1401",
"y  c #6B1A01",
"u  c #6C1809",
"i  c #731401",
"p  c #7C1301",
"a  c #731B01",
"s  c #7C1B01",
"d  c #701709",
"f  c #741A0A",
"g  c #7A1D0B",
"h  c #592200",
"j  c #662000",
"k  c #6C2100",
"l  c #732302",
"z  c #7B2202",
"x  c #7E220D",
"c  c #79280B",
"v  c #792110",
"b  c #840400",
"n  c #8B0400",
"m  c #840C00",
"M  c #8B0C00",
"N  c #930200",
"B  c #9C0200",
"V  c #940B00",
"C  c #9B0B00",
"Z  c #831401",
"A  c #8B1401",
"S  c #831B02",
"D  c #8C1B03",
"F  c #811C0B",
"G  c #8B1D0A",
"H  c #941400",
"J  c #941B02",
"K  c #9C1B01",
"L  c #921D09",
"P  c #9A1D0A",
"I  c #9F1F11",
"U  c #A40200",
"Y  c #AB0200",
"T  c #A30A00",
"R  c #AB0B01",
"E  c #B40300",
"W  c #BC0400",
"Q  c #B30B01",
"!  c #BB0B01",
"~  c #A41402",
"^  c #AB1402",
"/  c #A41B02",
"(  c #AC1D02",
")  c #A9190A",
"_  c #B51404",
"`  c #BC1402",
"'  c #B31D02",
"]  c #BC1D03",
"[  c #B71A0B",
"{  c #B61E11",
"}  c #832202",
"|  c #8B2203",
" . c #84250B",
".. c #8B220D",
"X. c #882B09",
"o. c #942304",
"O. c #9C2303",
"+. c #95240C",
"@. c #9B230C",
"#. c #862311",
"$. c #8B2412",
"%. c #8E2A14",
"&. c #942613",
"*. c #982714",
"=. c #952A14",
"-. c #9B2C15",
";. c #9C2E19",
":. c #9B3215",
">. c #A52303",
",. c #AB2204",
"<. c #A3230C",
"1. c #AA240C",
"2. c #A9290B",
"3. c #B52203",
"4. c #BC2304",
"5. c #B72906",
"6. c #B3250D",
"7. c #BB240D",
"8. c #B32B0C",
"9. c #BE2A0F",
"0. c #AC2811",
"q. c #A32E19",
"w. c #AA2D19",
"e. c #BB2414",
"r. c #B42B12",
"t. c #BD2C12",
"y. c #B82816",
"u. c #A03116",
"i. c #A6321D",
"p. c #AB331C",
"a. c #B3351E",
"s. c #BA3518",
"d. c #BA341B",
"f. c #AE3720",
"g. c #B53721",
"h. c #B53923",
"j. c #BD3B23",
"k. c #C20300",
"l. c #C30B02",
"z. c #CB0C02",
"x. c #CC1404",
"c. c #C21C02",
"v. c #CC1D02",
"b. c #C31509",
"n. c #C41C0C",
"m. c #CC1B0B",
"M. c #D31D02",
"N. c #D31804",
"B. c #DA1D02",
"V. c #CE1C10",
"C. c #E11F04",
"Z. c #C42104",
"A. c #CC2204",
"S. c #C7270E",
"D. c #CB240C",
"F. c #D52204",
"G. c #DC2305",
"H. c #D5260A",
"J. c #DA240A",
"K. c #D42C0E",
"L. c #DC290B",
"P. c #C42715",
"I. c #CC2310",
"U. c #CC2C13",
"Y. c #C22C1A",
"T. c #D32511",
"R. c #D32E13",
"E. c #DB2B13",
"W. c #D42C18",
"Q. c #C43115",
"!. c #C4321C",
"~. c #CB321A",
"^. c #C13A1E",
"/. c #D23216",
"(. c #DB3215",
"). c #DC341A",
"_. c #DD3A1E",
"`. c #E22405",
"'. c #E32709",
"]. c #EA2608",
"[. c #E32A0B",
"{. c #E32D12",
"}. c #E62C13",
"|. c #E33314",
" X c #EA3216",
".X c #E83816",
"XX c #E43519",
"oX c #E4391C",
"OX c #EC3A1D",
"+X c #F2371A",
"@X c #F43A1C",
"#X c #FA3C1E",
"$X c #C93620",
"%X c #C43C24",
"&X c #CB3D24",
"*X c #D53722",
"=X c #D33C23",
"-X c #DB3C25",
";X c #E33D23",
":X c #EE3C21",
">X c #F43F21",
",X c #FC3E20",
"<X c #BB4227",
"1X c #C84127",
"2X c #D54127",
"3X c #D3432A",
"4X c #D9452B",
"5X c #DC452A",
"6X c #DB492D",
"7X c #DE4E32",
"8X c #E24225",
"9X c #E3452B",
"0X c #ED4328",
"qX c #E44A2E",
"wX c #EB4A2E",
"eX c #FD4324",
"rX c #F5462A",
"tX c #FB4B2B",
"yX c #FB512E",
"uX c #E64D31",
"iX c #EC4D31",
"pX c #F34E31",
"aX c #F94E32",
"sX c #E75537",
"dX c #ED5134",
"fX c #F55234",
"gX c #FC5336",
"hX c #FF5738",
"jX c #F25B3C",
"kX c #FF5A3B",
"lX c #FF603F",
"zX c #FE6342",
"xX c #FA6544",
/* pixels */
"* * * * ; ; ; ; , ; , ; , , , , , , 4 4 4 4 4 r 4 4 r r r 4 r 4 r r 4 r r 4 4 r r 4 4 r , 4 , 4 , , , > > , > > > ; ; ; * * * * ",
"* * * * ; ; ; ; 3 , ; , , 3 , 4 4 r 9 4 4 r r 4 r r r r 4 y 6 t y r r r 4 y r 4 4 r r , 4 4 4 , , , , , > , > > > > ; ; ; * * * ",
"* * * ; ; ; : * ; ; , 3 , r , , > M w 3 r r r r r r r r r r m M 4 r r r f r r r r 4 r 4 4 9 4 , 4 , 4 > , > > > ; > ; ; * * * * ",
"* ; ; & & ; - u , p , ; / i > 4 1 T H 1 e r r r r t i 4 m C C 6 6 y r y ;.y 4 y r r 4 t t 4 4 4 0 9 3 9 , > , > > 8 > ; : ; * * ",
"; ; , f.d : 9 $.> ~ = Z m.- t t < U R t H 4 y r r y i i V Y M i t p.x + 1X;.3 a.Z 4 i ,.r 4 4 3 M t 0 M > , > , - n 8 * q * ; * ",
"& &   g.fX;.g F o 4.A ] A.# 9 C r R R T T < 4 4 r r r i N Y U Y b p.fXt 1XqXi.3XK $ ' Z.1 r r 3 T 0 C m 1 > > , - N N , b * * * ",
"9 $.*.w.hX&X, ) , c.M.G.K 4 D V W E ! W A t Z y y 4 Z U N U U Z 6 r hX9X%XhXwXh.c.J F.' % t r 4 R U W t - 0 9 , $ e U b B # 7 ; ",
"u 3XhXhXhXsXi.I v.c.`.F.^ H.Z < E l.l.l.Q E i 4 y 6 K Q U Y Y Z y 4 -.hXwXhXhX..A.F.G.p J H 3 M W l.W C Q Y 0 m e m U U B b n & ",
"* . ;.hXlXzXkX&Xn.G.G.G.'.Z.b K R l.W l.l.e 6 y t r R.) U U B Y p 6 +.wXkXhXtX;X;XG.A.c.H.r 4 p W l.l.l.l.w - 9 U U U Y Y U : * ",
"; * iXkXhXhXkX%XT '.|.L.G.A 0 Y W W Y l.A 4 i >.6 s OX) U U s V e.3XkXkXkXhXkXhX'.G.G.].J 1 t t B E l.T > 3 , = 0 U U U Y q # ; ",
"o h.hX$XfXhXuXfX<./ R.G.G.G.' 4 C Q B l.W H t s.+.D ,X~ Z [ p j 9 &XiXwXhXzXfX8XG.|.'.F.J p Z i C x.l.W C 9 r e n U B B Y n 8 * ",
"v h.@ $XhXfX3Xi.1X+ ] `.H p i r p t i H p s 4 r.OXU.@XA Q.J e X.p.dX+.6XhXhXtXU.>.K.G.G.F.( r r E m.{.b.U / i e B ^ U b U N 7 - ",
", + * hX&X3X3X  w.p A F./ 1 > r y r s y Z <.o.D eX@X|.).:XX.y u.fXwX4XhXtXeXtX,X8.Z.G.p Z 4 s Q.T.` @X/.> L 9 > & w.F * e , & ; ",
"* * d hXg v %X* p 9 =.$.A , x y r r H v.G.3.oX(. X,X@XeX8.c =.p.hXtXhX-XXXeX@X@XO.D Z._ p y 3 2.@X@X@X).F 9 ;.#.  h.w.* f., ; ; ",
"; @ ;.%X@ r w.e #.& j.%.  j.j.0 a t y J G.K.L.@X@XeXeX+XS.2.s <XzXhXwX!.@X@X@X Xt.3 A Q y y p O S.@XeXwX/ X =.hXF h.wX-.3X+ , ; ",
"; * $., ; , f B %X: qXj...kX$., Z 5 p A.G..X'.+XeXyX@X@X@XP.4XkXzXkXpX>X|.Q.@X/ /.y Y C V B 0 Q.eX@XeXtX,X0.o iXfXg.kXiX&Xo > > ",
"; , * ; 3 > , N -X&XpX-XfXiX, , u S M.C.C.{. XL.8._.@XS.z 5 3XhXhXyXyXtXwXd./.a U.S U Y Y Z 8.oXU. X@X@X@XL q L hXiXhXhX*.o , ; ",
"; ; , , 9 d 1 n P.hXpXhXhX$.& I H R V.;XN.E.tXM.-.s.@XOXl l wX4XhXkX~.d.*X&X8.4.O.p N U U i 3.t S @X@X@X,X<.N F 4XhXhXiX%X$X; ; ",
"; 3 , ; , n N N e.fXhXhX;X&XdX*XW Y W fXwXv.hX).wX%.>.t.O.%.X.a.iXfXuXX J 4.,.G.~ U U U Q B c.c.).>X X@XM.:X-XhXhXhXlXhXhX=.& , ",
"; , ; , ; 9 Y U Y.fXkXkXkXkX-XY W ! W ).hX:XhXiXiXl j k k l y p.3X%.9X} O.G.Z.F.p E E B _ b.` '.,X' H.@XW {.P.*XpXhXzXuX3X; ; ; ",
"> > > > r - e Y N { sXkXhX*Xb Y W W l.E 9XhXpXhX4X3 X.l c c k X.1X5 } D.( G.`.' 3.Z.U Y C A.v. X{.b.{.E.W z.W U -XhXuXu , , > > ",
"> > , > d N U Y T ) uXhXaXhX$XE l.! W ^ d.hXhXhX4X3XX.k l t.o.c :.} x Q.G.G.`.F.'.D C D B / G.'.G.`.G.x.E W l.9XfX6Xw.F v * ; > ",
"> > , > u p m B 0.M -XhXe.Y.-X{ Y Q $XhXhXhXzXhXhX1X} o.h 8.OXO.p.O.c 2XF.|. X].3.5 H a y ( G.(.'.`.M.z.Y E V.d., $.r , =.> ; ; ",
"; > > > w., > F $.> ) ;XY.n U C C T a U.9XpXzXsXwX=.J OX.X/.,X8.6X4X6 dXoX8XOXN.G.4.H s D a Y S.L.F.A.c.A R E n 4 > , - v u ; , ",
"> > , ; 7X#.* #.9 e w L P.U Y Z t J y n !.hXfXr.B z A z OX@X,X8.:.lX^.qXwXwX Xc.,.>.s k H V U ` '.( w e t i e t 4 r 9 4 > > > > ",
", ; > ; iXf.u f.* f 3 N ! [ B U y s y *XhX3X&X .e.A C 8. X@XtXtX5.4XhXwXkXyXA.Z.h | } h s Y Q Y b.v.Y Z i r r V 4 0 0 3 , > > > ",
"& ;.g   fX!.j.&X@ t t n M  X6.U ~ S y /.J J <.Z e.) Q ).R.@XeX@X.Xt.yXyXhXwX~./.y } (.o.y ^ Q B U U K T t Z t U w e w > , , > > ",
"* f 7Xf.iX3XfXj.  g P.XX6.XX@XS [ K a E K Q Y U U [ Y U ,.@X@XeXyXjXkXlXhXhXpX/.Q.>.OX(.a 3.V B E V C ! t C 3 B M N m 1 9 > , > ",
"> o j.kXfXfXhXd.3Xi., /.eX@XOX} a R W W ! ! D U Y U Y H OX@X@XXX0XhXfXkXzXhX!.! @X@X@XoX| z s U Y Q _ W C Y t C U _ m n w - > > ",
"r & * fXhXhXhXhX3X> = 6.@XeXtXP.y s l.l.l.E R E U N U ^ @X8.OXQ.] Q.qXhX*XT [ B m.@XeXtX<.t s U U [ { W ! Y U B B D.T.B = F 9 ; ",
"g 3XqXwXhXzXhX&X* 1 r.eX@X@XtX,X/.C ! W W W R C U J B P.H.U (.U.b.hXpXwXe.{ b I.eX@XeXtX>Xt.6 S m ^ T.l.W W ` T.` [ @Xe., L > > ",
"* F 3XfXkXzXhX&Xu L ~.8.K.,X#X@Xt.Q l.E E W S s / | | 8.o.W H.x./.R._ Y.B { P.XX(.{.@X@X@X8.y A ~ Y b.b.W.W Y ).,X X@XY.Z r > > ",
", & + 3X%Xq.hXwXa.r # t @X@X@X X/.5 _ c.^ l.Q k O.4.l ' o.Q x.l.W W O.s J K 8.N D @X@XOX@Xt.5 a ~.wXx.iXwX[ U N E.,XeX-X7 = , > ",
"; ; r f , f &.u - r 3 R.#Xt.eXO.).y / Z.a K A.3.} F.>.v.W l.E E I.} J t.u.z D N /.,X(.@X8.(.4 %XfXhXkXkXaXhX1X).,X@XtXtXXXZ - > ",
", ; > * f F & r r 4 r >X1.a oXr L.o.Z.A.t h >.'.3.F.G.4.k ` 3.' ;XT 6.iXX.J S Y @XD.1.oX6 t.} 6 a.pXzXkXwXP 9.wX). X,X,XXXG * > ",
", , , = w ;.- t y > <.r.3 y U.6 H.Z.G.K s O.j 4.`.F.`.4.>.>.| | wX<.4XiXD ~ y S./.B | U.a } z 4 wXhXhXkXhX%X0 > H ,X,X X@Xp - , ",
"> > M b u ) q u =., y > r 6 D.] A.`.F./ H.K y ,.G.L.G.G.4.x 1Xl dX;XfX;XU R / ^ U U ~ 7.k y 3 1XhXpXhXpXwXhX=.&  X@X X_.U.t.o , ",
"> > 9 U T e.e u &X, v =.4 y a F.F.`.G.`.4.T Z.[.G.[. XG.2.l 3X8XpXhXhXm.).-XY U Y U b.S y y  .1X..fX3XhXq.#.g.@.eXH XXP.9 P.& , ",
"; - , N U uX&X; fX;.g.p.- y y ] `.|.`.F.S ! O.( A.'.5.z 2.| =.hXaXhXpXpXkXx.Y U N N S.Q.z y 2.y y fX-.fXa.o 9 /.r.e 7.0.+ D > > ",
", w U Y U t.lXp.qXqXqX%.3 t 6 ' Z./.G.G.M.l.S / M.F.>.| >.c.O.tXhXzXhXkXW.U U [ E.n.b.@XQ.a 4.< / wX= iX3X+ i ^ 7 B ) L 8 > > > ",
", q e n R B iXhX4XhXiX* 4 y 5 4.K Z.M.l.' W ^ W Z.>.O.c.,.G.H.rXjXzXhXaXR.! K B t.>XOX@X/.} A.s R.!.  p.%X: 3 N U U M C 0 > > > ",
"; - - B U B { hXhXkX4Xg.q.3 3 Z.4.>.`._ W W l.! ( b.O.`.A.G.`.] ).hXiXhXhX*XD s y U.#XeX8X} F.A.L.D i P ;.b M V Y U U B > > > > ",
"; = N Y Y.4XhXaXhXkXhXiXS H % 3.v.( A.K W l.l.W W M.F.F.F.'.G.|./.fXpX| D } 6 -.oX,X@XeXeX>X'.G.M.' H.s t Z B U Y U Y n , , > > ",
"; d B q G *XhXaXhXxXhXa.@ ,.c.c.F.G.v.` z.W E z.c.A.`.F.N.}.|.'.4.d.*Xe.e.l z wX0X/..X,X@X@X'.`.G.`.' 4 i V t U B B Y Y B 0 > > ",
"> 0 9 - : n Y iXhXj.g x 3 r L.`.G.G.M.G.! E E z.G.G.G.`.A.5.{.H.N.A.T U &Xk -.hXz J eX@X@X@X{.|.'.F.K m m R 0 E B B B b , > > ; ",
"; - > > 9 P pXfXiX$.F p J < / G.'.'.G.K K H E E b.G.|.K.Z.J '.4.k D U N 3X7X&XhXr 0X:X XoX9.|.U.G.G.N.b.R W U l.m B Y , > > > > ",
"> > > b e j.*X) Y.q <.v |.L.G.G.|.L.] y 5 J Q 4.'.G.'.U.S z 4.A.D n Y.Y !.hXpX4Xa.hXD Q./.6 P.A.G.A S Q l.W l.V 1 w M e > ; ; ; ",
"> ; > : B U B U U E.W.0.XX+X' `.4.R.G.c.a A z.Z.M.A.F. X(.z z O.R B t.pX*XhXhX9XkX1X# @.8.r o.K G.D t W l.l.E V V e > > , , > > ",
"; > > = 9 Y Y U U P XX,X@XoXD / p K J ( ] K ! B H.+X XE.,X,.O.s T R B *XhXhXhXhXpXa 1 | ,.S y K J A r C E E l.l.U 9 , , ; > ; ; ",
"; > , q e B U B Y e / #X,XrX0.% K s 6 F.l.W W W M.T.@X@X>X@.S S s U U K 9XkXzXhXhXiX%Xy ( S r F.p 3 4 t B l.l.B = P r * , > > ; ",
"; ; > b B U U n B V.eX@XeXtX,Xt.K Z.( B.T m.l.l.l.H.@XeXpX_.[ i a C C [ 3X3XjXpXwX%X-.1 ( 3.K G.r 3 p p R W l.Y X 0.R.i - A , ; ",
"; > > + @ K 7.; / *XQ.R.@X@X@X7.K G.L.x.E -XW W E.eX@X@XeXeX{.K Z C y V S t 6XkXp.  K J K G.G.] 3 / A M B E L {.S./ ,Xe.0 F & ; ",
"> ; , p ; & XXt.4 p p OX@X@X X Xc.N.wX-XN.pX%Xx.rX[ t.@X@X@X).B _ K 4 ] 1.%.-.9X4Xy a R.c.'.'.' H./ 4 E r C q +.,X@X@Xt.0 > ; ; ",
"; ; * t.:XU.XX@Xp Z P.,XR.,X<. XG.M. XhXE.9X9X-X-Xn OX@X@X X XU ] ^ B G.+.3Xp.+ 6Xp.v ).M.G.B.'.F.3 r W e M e & E.@XtX;XG & > * ",
"; > ; @ e.@X@XOXZ - eXr.s OX- t.'.|.L.aXpX-XhXhX{ m.eX6.,Xn.T.Q ! F.b.G.l f.kX=.=XwX3X&XM.|.'.G.` H t W V E w _.eX@XeXtX>XL @ ; ",
"; ; * @ P.@XeXyX~.0.t.- r P., a K 3.B.B.hXhXhXpXE :XU.q XXK Q c.Q G.G.] s ^ iXfX3XhXhX@.A D.L.G.G.M.W W Q W t.).7. X,X@XXXp * ; ",
"; ; * Y.eX@X@XeX,XU.* 4 r / , , , <. X9XiXhXkXpXpX/.U U H.^ U F.N.G.`.c.`.H  .hXhXhXpXa #.K ].^ 4 Z l.l.l.W W e 1.,X@X X>XF @ ; ",
"* * G t.D I.,X@X@X0.- , , t , 6 Z =.9XkXhXhXzXkXuXN Y V L Z B T G.'.G.`.K.=.&XiXkXkX9XfXa.t ] v.C B W W W l.Y 9 @X).XX/.e.t.X ; ",
"* ; ;   p ,X@X@XXX/.+ r , 4 , u p - : ..3XhXsXg.t.U Y U p y p D F.|.|.`.R.tXkXhXkXzXkX4X8 4 4 Z V E W E E W & 2.,X& P.P.+ e.& * ",
"* * ; + ).:X) >Xp R.i > 4 , 4 r 4 y & -.hXhXj.q e Y M M M t 6 y Z ,.G.A.v._ <.9XkX7Xa.i., r r 3 1 t Q B U l.U P.G   +.<.o w ; * ",
"* ; * 9 >XG , ).& P S - , , , 4 4 > q.iXj.j.G &.G N m 3 6 r y 4 p D `.] 3 # p.hXfXa.r & r r r 4 4 9 0 4 e n 0 , & * F Z & * * * ",
"* ; & L +.+ , e.> , , > , , 4 , , , g 4 & u 9 r &.r p r 4 y r r Z t K 4.t i.iXg.%Xf &.g > 4 4 , > , > 0 , > - > , > : ; * > * * ",
"* * * * @ ; : G - > > , , 4 , , , r > 4 r 4 4 4 u r 4 r r r 4 a p 4 4 y i g , - u > t &., 4 4 4 4 , 3 0 9 > > > > > ; ; * * * * ",
"* * * * > * > * > > > > > > , , 4 , 4 , 4 r r 4 4 r r r r r r r r r r 4 4 4 , r 4 4 4 r r 4 , , , , > 9 9 > > > > * ; ; * * * * "
};
