/* XPM */
static char *bard_70x50[] = {
/* columns rows colors chars-per-pixel */
"70 50 256 2 ",
"   c #3C2C13",
".  c #332E11",
"X  c #343214",
"o  c #3C3215",
"O  c #3C3B1B",
"+  c #383A17",
"@  c #2F2D0F",
"#  c #3C3D23",
"$  c #3B3F28",
"%  c #2F373A",
"&  c #000413",
"*  c #433319",
"=  c #423C1C",
"-  c #44351A",
";  c #433C22",
":  c #4B3C22",
">  c #3D421C",
",  c #3C4227",
"<  c #3D4933",
"1  c #47421E",
"2  c #5C5A0E",
"3  c #696A18",
"4  c #73781A",
"5  c #6B6C15",
"6  c #434323",
"7  c #4B4425",
"8  c #4C4B26",
"9  c #44442C",
"0  c #4A4529",
"q  c #4C4C2B",
"w  c #444A29",
"e  c #54462B",
"r  c #524D2B",
"t  c #56492B",
"y  c #4E532B",
"u  c #53532D",
"i  c #59562C",
"p  c #444C33",
"a  c #484B33",
"s  c #564D30",
"d  c #4B5337",
"f  c #545433",
"g  c #5B5533",
"h  c #565931",
"j  c #5B5B35",
"k  c #53593C",
"l  c #5D5C3B",
"z  c #555739",
"x  c #635E3B",
"c  c #625C35",
"v  c #695C26",
"b  c #5E623A",
"n  c #5D6E2A",
"m  c #6B6828",
"M  c #6B7728",
"N  c #777927",
"B  c #63623C",
"V  c #6B643D",
"C  c #696736",
"Z  c #726A39",
"A  c #6C7234",
"S  c #78793A",
"D  c #756724",
"F  c #5C6807",
"G  c #2C3A45",
"H  c #1C2F50",
"J  c #384D6D",
"K  c #3B464A",
"L  c #53564D",
"P  c #665E46",
"I  c #5A6750",
"U  c #626542",
"Y  c #6D6A44",
"T  c #6A6646",
"R  c #746B44",
"E  c #766B46",
"W  c #7C7544",
"Q  c #787647",
"!  c #7A7956",
"~  c #696E50",
"^  c #4B5B69",
"/  c #52596A",
"(  c #4A686A",
")  c #4B6674",
"_  c #556877",
"`  c #576C71",
"'  c #68706F",
"]  c #655861",
"[  c #867B38",
"{  c #887532",
"}  c #817518",
"|  c #837947",
" . c #867756",
".. c #9E7D6A",
"X. c #7A891D",
"o. c #778C13",
"O. c #7A8627",
"+. c #7C942A",
"@. c #7B863A",
"#. c #7D9735",
"$. c #6D9735",
"%. c #7C8646",
"&. c #7A895B",
"*. c #798971",
"=. c #869117",
"-. c #8FAE15",
";. c #848829",
":. c #87962B",
">. c #828C3D",
",. c #8B8C3D",
"<. c #868737",
"1. c #948D3C",
"2. c #829533",
"3. c #83923D",
"4. c #8C933D",
"5. c #859B3B",
"6. c #899A36",
"7. c #969A39",
"8. c #92962A",
"9. c #AC9333",
"0. c #96A62A",
"q. c #8AA437",
"w. c #97A839",
"e. c #9DB339",
"r. c #95B22C",
"t. c #A6B739",
"y. c #A7AE35",
"u. c #CF9732",
"i. c #CE951B",
"p. c #AEC93B",
"a. c #9CC235",
"s. c #8A8D43",
"d. c #858847",
"f. c #948C48",
"g. c #8B9344",
"h. c #859A44",
"j. c #8B9B44",
"k. c #8A934B",
"l. c #8C9B4C",
"z. c #859446",
"x. c #949544",
"c. c #9A9444",
"v. c #949B44",
"b. c #9A9D45",
"n. c #9C944C",
"m. c #929B4C",
"M. c #9B9B4C",
"N. c #93934A",
"B. c #878558",
"V. c #968D55",
"C. c #8D9955",
"Z. c #929D54",
"A. c #939B5C",
"S. c #9A9755",
"D. c #A69C47",
"F. c #A49A57",
"G. c #AF9350",
"H. c #8CA447",
"J. c #94A443",
"K. c #94A34C",
"L. c #9BA34C",
"P. c #9CAB4C",
"I. c #98A945",
"U. c #9CB345",
"Y. c #9BA55C",
"T. c #98A658",
"R. c #9CB255",
"E. c #8EA252",
"W. c #A5A84A",
"Q. c #A6B848",
"!. c #B5BA4A",
"~. c #A6A957",
"^. c #B2AB5B",
"/. c #A8B556",
"(. c #BBB45C",
"). c #B6B858",
"_. c #B5AA4C",
"`. c #8A8763",
"'. c #948C68",
"]. c #94926B",
"[. c #979865",
"{. c #989973",
"}. c #91906F",
"|. c #A59B67",
" X c #AC9774",
".X c #98A466",
"XX c #99AB6B",
"oX c #A7A566",
"OX c #B6A966",
"+X c #AAB565",
"@X c #B8B768",
"#X c #A8A774",
"$X c #B4A978",
"%X c #AAB877",
"&X c #B6B777",
"*X c #CBB45A",
"=X c #C6BA68",
"-X c #CDB172",
";X c #D4A24D",
":X c #A8C748",
">X c #B5C749",
",X c #B8D649",
"<X c #ABC456",
"1X c #B7C858",
"2X c #BBD557",
"3X c #ADD443",
"4X c #BDE659",
"5X c #BAC665",
"6X c #BDD76C",
"7X c #B9C576",
"8X c #A9C47F",
"9X c #C3CF56",
"0X c #C8C767",
"qX c #C9C975",
"wX c #D3C87A",
"eX c #CFD470",
"rX c #ECDB78",
"tX c #D0E26E",
"yX c #D9D951",
"uX c #C0D43F",
"iX c #3D7C99",
"pX c #4B6988",
"aX c #567687",
"sX c #4B7598",
"dX c #567897",
"fX c #4D6F94",
"gX c #69798E",
"hX c #4F74A4",
"jX c #495987",
"kX c #5B8597",
"lX c #6A8790",
"zX c #5483AC",
"xX c #6486AA",
"cX c #6C92B4",
"vX c #67A3BF",
"bX c #76ABD4",
"nX c #92948F",
"mX c #A89989",
"MX c #AAA786",
"NX c #B7AB86",
"BX c #B5B18F",
"VX c #A5B0AC",
"CX c #C7B58C",
"ZX c #C7BFA8",
"AX c #BAC5A0",
"SX c #CBC984",
"DX c #DCCB8A",
"FX c #DCD784",
"GX c #D1CE94",
"HX c #E7D690",
"JX c #D2CFAD",
"KX c #E9E4A9",
"LX c #E8DDA8",
"PX c #EFEDCD",
"IX c #DEE3DB",
"UX c #A8CFF0",
/* pixels */
"O O O + X X X @ @ @ @ @ . .           * * - : : t t : t t t t t e : : : : ; ; % $ $ # $ 9 a a a d d d k b k k z z w w 1 1 = = = ; ; # ; = ; ",
"O O + + X X X @ @ X . . .             * * - - - : : : t s t t t e e s : : : ; : ; 9 ; 9 p a < a d a d d d d k h z i 0 w 6 w 0 7 ; ; = ; ; = ",
"= + # + o o o o X . . .             *   * * * - : : t t t t s s e e e : : ; ; : ; 9 9 p p p p a < a d d d b L b f z f y 0 0 0 0 0 6 6 = O O ",
"; = # - O + + + + + + o       *   *   * * * * * : : : t t t g t e e e : ; ; ; ; : a 9 9 p < < < < < d d d L d d d k d z z z z z s r 7 = = = ",
"6 ; 1 6 = 1 = 1 1 1 - + o * - - - - - - * = = 1 : t t s t c s s s t e r : : : : 0 0 9 9 p < < < < < < p a L d L d b k b l L l b c h g z i 0 ",
"6 6 1 w 6 6 1 1 1 1 1 1 = 1 1 1 1 1 1 1 1 1 1 1 : t s g c c c g t s 8 8 : : : : ; 6 ; 9 9 < < , , < , < < < d d d d d L U U T ~ Y R E Y B x ",
"6 6 w w w w 8 w y y y r r r i i i 8 8 8 w 8 8 8 t s c c x x V B c i r 0 w w a a 7 ; # # $ $ , $ , < 9 9 w p p y d d d k P U ~ !  .! &. .! ! ",
"9 0 0 0 w w 8 8 r w y i i j h h i i j i i 8 y y v g c B x R V Z B B i i i i 0 0 0 6 # # # # $ , 9 a a d f 0 y p < p f k L T !  .`.`.B.`.B.B.",
"w 8 8 w 1 w w w r y y i z h B B b C b b i y y y y z b C C Y Y Y Z C b z z y y y 0 6 6 O O # 6 9 s g g z z z i z y y p z b Y ! B.`.'.'.'.}.].",
"> 8 > w > 1 1 w 1 8 y i z b l B b U U b b h y y y y y b U T Y Y T B b b i y y 0 0 w 6 # 6 9 6 i z l x l c x B B C b T T R ! B.B.`.'.{.'.].].",
"> > > > , > , > 1 w w y z h l b b C U U b b h d y y y z z b B C T T h h z i y z 0 y 0 w 6 0 r h h V T V V Y Q ! &.&.! `.&.`.`.`.`.}.].].].].",
"> > > > > > , O > w w y y z k l L U U U b b h h y y y y i z h b l x h h r z y 0 z 0 s 0 7 7 z h c B V V ~ E ! `.}.}.{.{.{.}.].[.A.].A.}.].].",
"> > > @ + > , O 1 , , 6 0 a z z k l T U U U b b b h y i y z z z h l g i 0 y y f z r a r 0 r y h h x B T Z W  .`.{.{.MX#X{.[..X.XA.A.[.[.A.[.",
"@ > @ > + 1 > , , , 6 6 6 6 w w r z l b b b C B b b b y i 0 i i r z i 8 y 0 y 0 r 0 i r 0 0 y i c c c c C ! B.}.[.XXXXoXXX.XE..XZ.Z.Z.C.A.A.",
"@ @ @ > , w 7 9 0 w 6 6 7 1 1 8 s z l b U B B B B B b b i i i y r i 0 w w w r i i i i i i 8 v y c C Z C Z Q B.C.A.[..XA.E.E.Z.l.H.l.l.Z.k.k.",
"> > > > 0 0 i i g z i r w 8 8 r g g h l b B B B B B B b g z i z g g h i i j m l B c B c c j v v m Z Z Z S %.%.%.k.Z.l.l.l.s.h.5.5.#.5.h.k.k.",
"> > r r z g l x P P z g i i c s c x x x x x V c b V V T c c b m v v c P C 3 2 C V C Z Z m C M n A S @.@.%.h.s.s.%.h.3.3.3.3.3.3.3.#.%.s.l.k.",
"i n h l x V P T T T x B x x V x V x P x V V V V ~ b T R T Y C I aXkXxXcXxXcX' M 3 Z M C R A A A S @.%.@.s.s.h.k.g.l.3.>.,.>.>.3.3.>.5.g.s.k.",
"n C C Z Y E E E E E E E R R V Z E E E E E P V V Z Y E Q Y @.` zXvXbXbXUXIXIXUX' '  .! A O.M M S @.d.h.g.l.g.l.h.d.g.s.,.3.d.s.s.s.g.g.x.g.g.",
"C C Z Z R R R E E E E W E E E E | | | E | { x { Z E R ~ @.I sXkXaX( ^ ) }.nXnXgX' ] ~ S A M S @.>.k.m.E.E.l.k.%.k.s.,.s.s.k.g.s.g.g.g.4.4.l.",
"Z S S Q Q S Q R R W W W | W W | S Q | | | Z Z Z ~ A Q Q %._ sX` ( gXL G G & ! MXL.O.@.S O.@.%.g.N.Z.E..XY.A.C.C.s.3.3.>.s.d.f.g.g.g.g.3.4.4.",
"Q S Q %.d.%.d.d.d.&.%.Q @.Q <.S | | @.@.{ V S S A Y Q #.( dX` pX' ' / _ ( ` JX-XZ.d.h.l.l.l.S.A.Z.Y.T..XY.A.C.E.H.l.4.l.k.x.N.x.x.v.c.x.v.l.",
"d.d.C.d.%.C.C.C.C.C.k.s.d.3.%.@.@.>.@.3.3.@.S @.@.%.%.%.) sXsXpX` _ ) _ J VXJXCXR.I.R.P.I.R.P.I.T.T.T.T.T.R.H.H.H.q.H.J.H.H.K.K.w.b.m.M.m.M.",
"A.[.E.A.A.E.A..XA.C.l.l.l.3.#.#.@.#.3.3.h.5.%.@.@.#.H.kXsXaX) ) ^ ^ ) _ ( VXLXGX:XU.U.:X/.U.W.P.T.P.P.P.P.K.K.U.I.I.I.I.K.H.K.I.I.P.W./..X~.",
"#X[..XA.E.H.H.E.H.5.5.q.q.5.#.#.+.%.#.q.q.5.5.#.;.:.lXkXsXhX( jXjXJ ^ J jXlXJXIXSXr.U.U.U.R.R.U.L.K.K.P.P.I.U.U.e.U.I.I.H.H.H.K.U.U.R.+X%X%X",
".XY.l.H.5.q.q.q.q.#.#.#.:.6.q.#.:.6.5.I.P.q.q.k.o.*.xXkXhXhXsXsXhXsXsXgX'.] VXPXKXq.U.U.U.R.T.P.P.K.R.T././.U.Q.Q.U.Q.w.q.%.#.H.R.R.+X%X%X8X",
"E.E.l.6.2.:.q.:.#.#.+.2.:.#.6.q.5.l.0.J.Y.l.H.X.&.zXzXdXsXsXhXhXsXiXhXnX;X_.nXIXPXH.h.l.&.H.T.~.R.R.R.R././.+X+X/./.P.I.H.h.E.E.R.A.XXT.T.XX",
"/./.U.q.r.U.U.e.R.U.w.l.l.J.J.P.H.H.H.K.T.v.5.}.zXhXzXzXhXfXiXsXhXfXaX'.u.u.$XZXJXH.s.d.H.h.Y.+XT.E.T.~.T.+X@XoXoX~.T.E.l.%.l.C.Z.H.H.l.E.K.",
"/.Q.I.U.U.Q.Q.6.:.e.w.w.I.>XQ.w.t.w.e.R.E.R.*.cXzXzXdXaXfXsXhXfXpXjXgXOXi.;X-XZXZX7.1.N.N.4.M.~.~.F.F.M.D.~.oX[.oX#XoX|.S.d.>.3.l.v.l.v.m.L.",
"7.w.0.w.+.;.I.L.0.R.Y.I.r.t.Q.Q.Q./.<Xp.e.&.gXxXkXkXdXaXpX_ / ` ^ J NX;Xi.u.$XJXZX7.D.D.f.c.n.n.S.V.n.n.f.f.N.S.#X#X$X|.S.s.4.c.M.M.b.v.L.L.",
" .#X|.N.v.L.w.7.T.Y..X/.0.0.w.Q././.>XQ..X_ aXxXkXdXaX_ ( ^ J H L BX;Xi.u.G.^.ZXNX1.F.F.D.D.d.s.f.V.V.F.n.n.f.V.F.F.#XF.n.D.c.c.N.M.M.c.b.M.",
";.<.S.N.:.7.<.! ,.;.=.:.O.+.:.O.+.:.7.B.^ sXxXlXgX` ^ / L L  .*XyX;Xi.u.|.mXmXBX|.<.V.n.n.V.f.[ d.V.S.S.n.F.D.n.n.F.D.c.1.b.1.f.,.1.3.:.6.l.",
"h.+.=.X.A M v 3 #.M 3 m M 3 M N 4 <.].L pXlXaX_ / ) ] ' G.;XrXyXu.u.9.G.mX#X#X%XW.F.Y.M.F.V.H.%.H.H.E.~.Z.m.~.m.M.L.7.b.x.f.d.{ { [ ,.,.3.4.",
":.M X.X.v 2 N S 4 M 5 m D ;.X.@.4 S ] / ' _ / ` ` L ! $X-X;X;X9.;X;XV.|.[.{.{.l.P.Q.t.Q.y.~.R.I.R.T.E..XT.L.4.N.w.b.L.H.s.3.<.;.;.@.,.3.4.4.",
"M.+.:.4 O.3 3 #.} D ;.8.[ m ;.;.#.] G I ( / ` / p ! MX$XCX-X$X^.^.|.'.{.{.A.A.;.o.:.e.Q.(.qX1XW.U.e./.+XE.m.w.L.M.T.K.v.m.k.g.g.x.s.s.g.L.L.",
"&XH.@.@.@.O.;.N 2 N 7.;.,.f.4.S I ' L / ] d a ~ XXNXMXBXBXNXMX$X XA.[.'.B.2.<.[ L.7.O.>.+X~.I.!.Q.t.t.1X5X).^.~.F.~.Q.D.D.W.M.n.V.n.g.,.4.W.",
"t.+X.X;.w.<XQ.w.=.0.;.4 6.;.D I pX~ ] P U U `.MXCXCXNX%XMXBXMX#X].&.B.S @.>.5 5 O.4 <.;.N +.e.w.t.Q.t././.!.W.^.~.W.(.+X^._.9.W.b.W.b.1.[ n.",
"O.K.L.7.6.#.0.q.w.Q.Q.W.Q.s.K / ~ ~ l A ! B.%.B.].[.#X#X XMX[.&.! S d.D.8.<.@.1.v.} S D <.O.+.O.O.7.L.4.b.L.L.!.KXKX=X).).^.^.oXL./.~.^.$XBX",
"$.O.F o.;.6.8.=.r.r.Y.OXT.< p P W Q E.d.M.0.w.<.4.m.d.B.%.~ k.| 8.~.4.N | F.W.>.8.<.[ f.c.@.O.N W O.4 2 N <.f.W.qXJXGX=X@X[.[.D.+X).^.$XGXJX",
"Q.|.n X.x.#.o.+.+.o.x.gXH ; | G.b.0.7.%.{ ;.7.).:Xt.0.3.%.! W._.1.7./.7.1.D W./.0.7.Z ;.0.6.#.%.S { d.E  .C N 4 4 <.OX).!.@X@X@X+X^.P.N.S.#X",
"9.G.8.;.B.mX{ 4.=.~ vXcX&.} 1.D.e.+.3 [ D.D.g.4 w.w.W.F.+.nX[ } f.,.<.1.;.;.<.X.N ;.L.3.7.1.N.6.d.B.S !  ...{.BXZXZX$XoX7X=XOX(.W./.).@XCXCX",
"~. X X|. X|.I.2.lXbXlX7.:.N <.7.2.<.v.+.k.m.#X..S >.Q.S 2 V  X[ 1.[ N P.<.c.N.@.,.<.M.D.D.n.f.c.W.W.(.^.nXmXBXJXJX7XoXNXBXBXNXBXZX~.6.%X&X+X",
"7X XCXMX`.+.4.*.lXn.-.+.3.<.[ Q.M.W.^./.~.OX_.P.+X~.w.w.;.>X7XI.P.4./.>X0.7.<.v.!.1X1X!.y.&X0Xy.<X2X2XU.0X&X5X+XeXt.5X5XOX0X7X7X7X1XC.#X&X+X",
"0X<X-X5Xa.T.E.XX=._.t.>XW.2.K.7X<X1X)./.5X@X_.9X3XqX4X4X9X5X,X1X2X/.2X,X>X>X!.2X3X2X>XQ.e.0X<X:Xa.U./.T.2.b F :.I.<X6X6XFX1X1X9X<X1X7XS.g.2.",
"Q.<X1X:X:X,X4X4X3X3X2X4X4X9X9X:X*X<X~.^.5X<XQ._.).qXR.a.9X!.0X9X,X,X:Xt.9X4X9XtX,X<XtX,X9X>X1X1Xk./.K.R.Q.[.H.R.%.n <XBX8X/.qX@Xp.0X5X,XQ.L.",
"Q.@X+X<X,X0.a.w.-.:X-.,X2X:Xr.y.:Xp.,X).4.1.:X6XqX0XtX&X;.^.+X_.).Q.t.0.p.-.r.t.t.t.y.0.1X>X,X/.<Xr.p.:Xp.uX:Xp.p.K.-.y.P.T.e.6.t.^.Z.).1X/.",
",X%X&X@XW.H./.W.<X%X$XtX@Xm.0X@X9X9X>XU.W.tX1X).5XyX9XGXHXqXG.OX@Xw.>X0XOX@X).n._.=XOXD.(.1X>X9X!.c.W.eXLXDXSXHXT.0.qXDX-XoXQ.c.D.[ [ | M.GX",
":XSX7XSXqX6X<XeXHXFXKXFX0XqXrXeX1XwX(.@X9X0XqX(.M.qXFXHXrXSX-X*XwX*X9XFXDXFXeXeXwXDXwX=X(.0X1X!.9.*X9XZXIXLXCXCXCXCXHX-XOXqXwX^.{ { |  . .{.",
"[..X&X7XqXqXqXqXeX5X0X0X*X=X7XFXGX-X!.~.~.D.b.!.(.D.G.=X=XwXrXeX=XCXCX*XG.^.DXHXwX0X*XOX=XwXeXwXSX!._.SXDXG.W.+XGXLX=XW.=XwX-X<.oXS.d.V.|. X",
"S.S.M.L.^.^.(.@X).^.OX^.NXKXPXPXPXHX!./.Q.*XW.qXeX0X=X=X-X=XwX=XrXPXKXCX0XqX-XeXHX0XeXwXeXFXeX=XrX0X=X0X=XG.*XqX=XG.=XeX^.|.|.|.^.D.f.| [ | "
};
