/* XPM */
static char *oldcry2[] = {
/* columns rows colors chars-per-pixel */
"100 100 12 1 ",
"  c None",
". c black",
"X c #8F563B",
"o c #D9A066",
"O c #8B9BA3",
"+ c #9BADB7",
"@ c #C7A381",
"# c #DBB48F",
"$ c #EEC39A",
"% c #B2C6D1",
"& c gray89",
"* c white",
/* pixels */
"                                                                                                    ",
"                                                                                                    ",
"                                                                                                    ",
"                                                                                                    ",
"                                                                                                    ",
"                                                                                                    ",
"                                                                                                    ",
"                                                                                                    ",
"                                                                                                    ",
"                                                                                                    ",
"                                                                                                    ",
"                                                                                                    ",
"                                                                                                    ",
"                                                                                                    ",
"                                                                                                    ",
"                                         $$$$$$$$                                                   ",
"                                        $$$$$$$$$$$                                                 ",
"                                      ##$$$$$$$$$$$$                                                ",
"                                     ###$$$$$$$$$$$$$                                               ",
"                                    ####$$$$$$$$$$$$$$                                              ",
"                                   #####$$$$$$$$$$$$$$                                              ",
"                                  #####$$$$$$$$$$$$$$$$                                             ",
"                                  #####$$$$$$$$$$$$$$$$                                             ",
"                                 ######$$$$$$$$$$$$$$$$$                                            ",
"                                 ######$$$$$$$$$$$$$$$$$                                            ",
"                                 ######$$$$$$$$$$$$$$$$$                                            ",
"                                 ######$$$$$$$$$$$$$$$$$                                            ",
"                                #######$$$$$$$$$$$$$$$$$                                            ",
"                                #######$$$$$$$$$$$$$$$$$                                            ",
"                                #######$$$$$$$$$$$$$$$$$                                            ",
"                                #######$$$$$.$$$$$$$$.$$$                                           ",
"                                #######$$$$$$$$$$o$$$$$$$                                           ",
"                               ########$$$$$$$$$$o$$$$$$$                                           ",
"                               #o######$$$$$$$$$$o$$$$$$$                                           ",
"                               ##o######$$$$$$$$$o$$$$$$$                                           ",
"                               ##oo#####$$$$$$$$$o$$$$$$$                                           ",
"                               ##oo#####$$$$$$$$$$$$$$$$$                                           ",
"                               ##oo#####$$$$*********$$$$                                           ",
"                               #########$$$$**ooooo**$$$                                            ",
"                                ########$$$***ooooo**$$$                                            ",
"                                  ######$$***********$$$                                            ",
"                                  ######$$***********$$$                                            ",
"                                   #####$$***********$                                              ",
"                                    ####$$***********                                               ",
"                                     ###$************                                               ",
"                                        $***********                                                ",
"                                        $*$  *******                                                ",
"                                     $$$$$$$ ***** *                                                ",
"                                   @*$$$$$$$*  **                                                   ",
"                                 @@@*$$$$$$$$*                                                      ",
"                                @@@@*$$$$$$$$*$                                                     ",
"                               @@@@@**$$$$$$$*$                                                     ",
"                               @@@@@***$$$$$**$$                                                    ",
"                              @@@@@&*****$$**$$$$$$$$$$$$$                                          ",
"                              @@@&&&********$$$$$$$$$  $$$$$                                        ",
"                              @@@&&*********$         X$$$$$+++++++++++++                           ",
"                              @@&&&*********$         X$$$$X%%%%%%%%%%%%                            ",
"                             @@@&&&********$             $$  %%%%%                                  ",
"                             @@&&&*********$                                                        ",
"                             @@&&**********$                                                        ",
"                             @@&&**********$                                                        ",
"                             @@&&**********                                                         ",
"                             @@&**********                                                          ",
"                             @&&*********                                                           ",
"                             @&**********                                                           ",
"                             @&&*********                                                           ",
"                            O&&&*********                                                           ",
"                            OO&&*********                                                           ",
"                            OO+&&&&&&*****                                                          ",
"                            OO+++++&&&&&&&&                                                         ",
"                            OO+++++++++++++                                                         ",
"                            OO+++++++++++++                                                         ",
"                            OO++++++++++++++                                                        ",
"                            OO+++++  +++++++                                                        ",
"                             OO++++    ++++++                                                       ",
"                             OO+++      ++++++                                                      ",
"                              OO+++      +++++                                                      ",
"                              OO+++       ++++                                                      ",
"                               O++++       ++$$                                                     ",
"                                ++++        $$$$                                                    ",
"                                ++++$        $$$                                                    ",
"                                $$$$$          $$$                                                  ",
"                                $$$$            $$                                                  ",
"                                $$$             $$                                                  ",
"                                $$$             $$                                                  ",
"                                $$$$           $$                                                   ",
"                                $$$$$         $$$                                                   ",
"                                  $$$         $$$$                                                  ",
"                                  $$$         $$$$$$                                                ",
"                                 $$$                                                                ",
"                                $$$                                                                 ",
"                                                                                                    ",
"                                                                                                    ",
"                                                                                                    ",
"                                                                                                    ",
"                                                                                                    ",
"                                                                                                    ",
"                                                                                                    ",
"                                                                                                    ",
"                                                                                                    "
};
