/* XPM */
static char *oldcry2[] = {
/* columns rows colors chars-per-pixel */
"64 64 179 2 ",
"   c None",
".  c #A38569",
"X  c #AB8C6F",
"o  c #D9A36C",
"O  c #C6A17F",
"+  c #DAA571",
"@  c #DAAB7D",
"#  c #E3B07E",
"$  c #E3B17F",
"%  c #A79E9A",
"&  c #8A9AA2",
"*  c #8B9BA3",
"=  c #8D9DA5",
"-  c #92A2AB",
";  c #93A4AD",
":  c #95A7B1",
">  c #97A9B2",
",  c #98A9B3",
"<  c #99AAB4",
"1  c #9AACB6",
"2  c #9AADB7",
"3  c #9BADB7",
"4  c #9DADB6",
"5  c #9CADB7",
"6  c #9CAEB7",
"7  c #9AADB8",
"8  c #9CAEB8",
"9  c #9DAEB8",
"0  c #BCB0A3",
"q  c #B1B3AF",
"w  c #ACB1B1",
"e  c #ACB2B1",
"r  c #AFB3B2",
"t  c #A1B4BE",
"y  c #A2B4BE",
"u  c #A9B7BF",
"i  c #C7A280",
"p  c #C7A380",
"a  c #C7A381",
"s  c #C7A482",
"d  c #CBAA8B",
"f  c #CBAC8E",
"g  c #CCAD8F",
"h  c #DAAE83",
"j  c #DAAE84",
"k  c #DAAF85",
"l  c #DBAD87",
"z  c #D7B08B",
"x  c #DBB189",
"c  c #DBB38D",
"v  c #DBB38E",
"b  c #DBB48E",
"n  c #DAB48F",
"m  c #DBB48F",
"M  c #CCAD91",
"N  c #CDAE91",
"B  c #CCAF94",
"V  c #CDB095",
"C  c #DBB490",
"Z  c #DBB590",
"A  c #DCB590",
"S  c #DDB590",
"D  c #DDB690",
"F  c #DFBF9F",
"G  c #E0B28B",
"H  c #E2B992",
"J  c #E3B992",
"K  c #E3BA93",
"L  c #E3BA94",
"P  c #E4BB94",
"I  c #E4BD94",
"U  c #EBBE92",
"Y  c #E9BC94",
"T  c #EBBF94",
"R  c #E8BE96",
"E  c #E8BE97",
"W  c #E9BF97",
"Q  c #ECBF94",
"!  c #C5B8A8",
"~  c #D1BAA4",
"^  c #EAC097",
"/  c #EDC197",
"(  c #E7C39F",
")  c #EAC098",
"_  c #EBC098",
"`  c #EBC29B",
"'  c #ECC299",
"]  c #EDC299",
"[  c #EEC298",
"{  c #EEC299",
"}  c #EEC399",
"|  c #ECC29B",
" . c #EEC39A",
".. c #EFC39A",
"X. c #EEC39B",
"o. c #EFC49B",
"O. c #EEC49C",
"+. c #EEC59D",
"@. c #F0C59B",
"#. c #F0C59C",
"$. c #F0C69C",
"%. c #D6C4B4",
"&. c #D7C8B9",
"*. c #EFC6A0",
"=. c #EFC7A0",
"-. c #EFC7A1",
";. c #EFC8A2",
":. c #F0CBA7",
">. c #F1CEAC",
",. c #F2CFAD",
"<. c #EFD7BE",
"1. c #F2D1B2",
"2. c #F2D2B2",
"3. c #F2D3B5",
"4. c #F3D4B7",
"5. c #F3D5BA",
"6. c #F4D7BC",
"7. c #F4D8BD",
"8. c #9FB4C0",
"9. c #A9B8C0",
"0. c #B0C4CF",
"q. c #BBC4C9",
"w. c #B1C5D0",
"e. c #B1C6D2",
"r. c #C1C9CE",
"t. c #DED5CD",
"y. c #DFD7CF",
"u. c #DFDBD7",
"i. c #D5D9DB",
"p. c #D7DBDD",
"a. c #DFDCDA",
"s. c #D8DCDE",
"d. c #F5DAC1",
"f. c #F5DBC2",
"g. c #F0DBC5",
"h. c #F1DCC6",
"j. c #F2DFCB",
"k. c #F2DFCC",
"l. c #E0DCD9",
"z. c #F6E0CB",
"x. c #F7E2CF",
"c. c #F7E4D1",
"v. c #F7E4D2",
"b. c #F8E5D3",
"n. c #F8E7D6",
"m. c #F5E7DB",
"M. c #F9E8D9",
"N. c #F9E9DA",
"B. c #F9EADB",
"V. c #F9EADC",
"C. c #F9EBDE",
"Z. c #E3E3E2",
"A. c #E3E4E4",
"S. c #E8E7E6",
"D. c #E9E9EA",
"F. c #EDEDEE",
"G. c #FBEFE5",
"H. c #FBF0E5",
"J. c #FCF6EF",
"K. c #F0F0F1",
"L. c #F1F1F1",
"P. c #F1F1F2",
"I. c #F2F2F2",
"U. c #F4F4F4",
"Y. c #F7F7F7",
"T. c #F9F6F3",
"R. c #FDF6F0",
"E. c #FDF7F1",
"W. c #FDF7F2",
"Q. c #FDFAF6",
"!. c #F9F9FA",
"~. c #FAFAFA",
"^. c #FEFCFA",
"/. c #FEFDFB",
"(. c #FCFCFC",
"). c #FDFDFD",
"_. c #FEFDFC",
"`. c #FFFEFD",
"'. c #FFFFFF",
/* pixels */
"                                                                                                                                ",
"                                                                                                                                ",
"                                                                                                                                ",
"                                                                                                                                ",
"                                                                                                                                ",
"                                                                                                                                ",
"                                                                                                                                ",
"                                                                                                                                ",
"                                                                                                                                ",
"                                                                                                                                ",
"                                                    [ [ =.[ [ [ =.                                                              ",
"                                                A I [ =.[ [ [ =.[ [                                                             ",
"                                              A A I =.[ [ [ =.[ [ [                                                             ",
"                                            A A A I [ [ [ =.[ [ [ =.=.                                                          ",
"                                            A A A [ [ =.[ [ [ [ [ =.[                                                           ",
"                                          A A A A [ [ [ [ =.[ =.[ [ [ [                                                         ",
"                                          m m m D [ =.[ =.[ [ [ =.[ =.[                                                         ",
"                                          m m m D [ [ [ [ [ [ [ [ [ [ [                                                         ",
"                                        m m m m D [ [ [ ( [ [ [ [ [ [ [                                                         ",
"                                        m m m m A [ [ ( . ( [ W [ z X $.                                                        ",
"                                        m m m m D [ [ [ ( [ [ $ [ [ I =.                                                        ",
"                                        h h m m D [ =.[ [ [ [ $ W [ [ [                                                         ",
"                                        m + h A A D [ [ [ [ [ $ W [ [ [                                                         ",
"                                        m o @ A A I [ [ 4.7.7.<.6.6.[ =.                                                        ",
"                                        m h m m m J [ =.W.h.J D 6.W.;.[                                                         ",
"                                          A m m m J =.B._.z.*.*.g.W.;.[                                                         ",
"                                            m m m J >._._._._._._.J.[ [                                                         ",
"                                              m m J >._._._._._._._.                                                            ",
"                                                m J B._._._._._._._.                                                            ",
"                                                    B.B._._._._._.                                                              ",
"                                                [ [ :.[   _._._.                                                                ",
"                                          i g k.[ [ [ [ f.                                                                      ",
"                                        i i g m.>.[ [ / 4.z.                                                                    ",
"                                        a O M U.H.>.[ =.B.f.[                                                                   ",
"                                      i a ~ t._._._.b.G.b.[ [ [ [ [ [ [ [ [                                                     ",
"                                      i g l.U._._._._._.4.            m =.J 0 9.y y y y y y                                     ",
"                                      i %.Z.U._._._._.J.                $.G % e.e.e.e.                                          ",
"                                      M s.F._._._._._.z.                                                                        ",
"                                      V Z._._._._._._.b.                                                                        ",
"                                      V D._._._._._._.                                                                          ",
"                                      &.U._._._._._.                                                                            ",
"                                      l._._._._._._.                                                                            ",
"                                    r l.U._._._._._.                                                                            ",
"                                    * q.D.K.U.!._._._.                                                                          ",
"                                    & 3 9.9.q.p.s.s.s.                                                                          ",
"                                    & > 3 , 7 9 3 3 3 y                                                                         ",
"                                    * 3 7 7 7 7 3 3 3 3                                                                         ",
"                                    * ; 7 7       3 3 7 7                                                                       ",
"                                      = , 7         3 3 7                                                                       ",
"                                      * ; 7           3 7 r                                                                     ",
"                                        : 7 7           ! =.                                                                    ",
"                                        r r r F           [ [                                                                   ",
"                                        =.[ =.              =.[                                                                 ",
"                                        [ [                   [                                                                 ",
"                                        [ [ [               [ [                                                                 ",
"                                          =.[ [           [ [ [                                                                 ",
"                                            [ =.            [ [ [                                                               ",
"                                          [ [                                                                                   ",
"                                                                                                                                ",
"                                                                                                                                ",
"                                                                                                                                ",
"                                                                                                                                ",
"                                                                                                                                ",
"                                                                                                                                "
};
