/* XPM */
static char *spring2[] = {
/* columns rows colors chars-per-pixel */
"100 100 64 1 ",
"  c black",
". c #FFA5C4",
"X c #FFA9C6",
"o c #FFADC9",
"O c #FFB4CD",
"+ c #FFB6D1",
"@ c #FFB9CF",
"# c #FFBCD2",
"$ c #FFC2D6",
"% c #FFC6D9",
"& c #FFCCDC",
"* c #FFCECF",
"= c #FFCED2",
"- c #FFCEE0",
"; c #FFD2D3",
": c #FFD3DD",
"> c #FFD4E2",
", c #FFD6E9",
"< c #FFDADC",
"1 c #FFDBE4",
"2 c #FFDEE8",
"3 c #FFE2E3",
"4 c #FFE3EC",
"5 c #FFE4DD",
"6 c #FFE9EE",
"7 c #FFEBDB",
"8 c #FFEBE3",
"9 c #FFECF2",
"0 c #FFF2F6",
"q c #FFF3DB",
"w c #FFF3E3",
"e c #FFF6D5",
"r c #FFF6EA",
"t c #FFF6F9",
"y c #FFFCDA",
"u c #FFFCE4",
"i c #FFFDD4",
"p c #FFFFBE",
"a c #FFFFC2",
"s c #FFFFCD",
"d c white",
"f c None",
"g c black",
"h c black",
"j c black",
"k c black",
"l c black",
"z c black",
"x c black",
"c c black",
"v c black",
"b c black",
"n c black",
"m c black",
"M c black",
"N c black",
"B c black",
"V c black",
"C c black",
"Z c black",
"A c black",
"S c black",
"D c black",
"F c black",
/* pixels */
";;;;;;;;;;;;;;;;;;;;;;;;;;;;;;;331:;;;;;;;;;;;;;;;;;;;;;;;;;;;;;;;;;;;;;;;;;;;;;;;;;;;;;;;;;;;;;;;;;",
";;;;;;;;;;;;;;;;;;;;;;;;;;;;;:<::>1<:;;;;;;;;;;;;;;;;;;;;;;;;;;;;;;;;;;;;;;;;;;;;;;;;;;;;;;;;;;;;;;;",
";;;;;;;;;;;;;;;;;;;;;;;;;;;=<11#O&14>;;;;;;;;;;;;;;;;;;;;;;;;;;;;;;;;;;;;;;;;;;;;;;;;;;;;;;;;;;;;;;;",
";;;;;;;;;;;;;;;;;;;;;;;;;;;<1>$OOO$&::;=;;;;;;;;;;;;;;;;;;;;;;;;;;;;;;;;;;;;;;;;135<;;;;;;;;;;;;;;;;",
";;;;;;;;;;;;;;;;;;;;;;;;;;:11&###OO#::;==;;;;;;;;;;;;;;;;;;;;;;;;;;;;;;;;;;;;;;<>:13<;;;;;;;;;;;;;;;",
";;;;;;;;;;;;;;;;;;;;;;;;;;:1:%$&&$#$:<<;=;;;;;;;;;;;;;;;;;;;;;;;;;;;;;;;;;;;;;31$#%441;;;;;;;;;;;;;;",
";;;;;;;;;;;;;;;;;;;;;;;;;;<1&%&:>&%$&:<;;;;;;;;;;;;;;;;;;;;;;;;;;;;;;;;;;;;;<1:%OO#$&:<;;;;;;;;;;;;;",
";;;;;;;;;;;;;;::::::;;;;;<1>&&1111:&&:<;;;;;;;;;;;;;;;;;;;;;;;;;;;;;;;;;;;;;<1&####O#&<;;;;;;;;;;;;;",
";;;;;;;;;;;;;<111111<<;;;1>&:14442>:&:<;;;;;;;;;;;;;;;;;;;;;;;;;;;;;;;;;;=;<<:$#&&$#$&<;=;;;;;;;;;;;",
";;;;;;;;;;;;;<:&&&::11<<:::&>499941:&:<;;;;;;;;;;;;<<;;;;;;;;;;;;;;;;=;;;;;1>&&&:&&%$%1:;;;;;;;;;;;;",
";;;;;;;;;;;;<<$##$&&>133<:&&149tt94>&:<;;;;;;;;;;;<<:;;;;;;;;;;;;;;;;;;;;;:1>&>1>1>:%%1:;;;;;;;;;;;;",
";;;;;;;;;;;;<3&##%&>>>>243:&190dd941>>:;;;;;;;;;:::&$::;;;;;;:>1111111<;*:1&&:124421:&>:;;;;;;;;;;;;",
";;;;;;;;;;;:::$#$&>111>1241&160dd941>::;;;;;;;;;=&$##&::;;;;;:>>&&&>>111;<1&&1149944>&>:;;;;;;;;;;;;",
";;;;;;;;;;;1&##$&144441>>41&>499994>&:<;;;;;;;;;=#O#%%&1:;;*;<:%OO$&&>11<11&:149t094>&>1<;;;;;;;;;;;",
";;;;;;;;;;;<=O@%>2499941>>>&>244442>&>1;;;;;;;;:&&%&>:-><<;*;31&##&&>>&:142&:140dt941>>1<;=;;;;;;;;;",
";;;;;;;;;;;<=##%>299dt41>>:&&>4422>&:>1;;;;;;;;:&&&1441>::;;:1:$$%:111>>>44>:140dt941>>1<;=;;;;;;;;;",
";;;;;;;;;;;<:&#$>290dd41>>:&&:111>&&11<;;;;;;;;;=&>4994>::;<1&$@$&>44444:14>>14909941:>1<;=;;;;;;;;;",
";;;;;;;;;;;;<>##:1490041>:&%#%:&&&>44311131:;==;::>40t91::;<<%#O%:149994>11:>>244641:&>:;;;;;;;;;;;;",
";;;;;;;;;;;;<1&$&>444441:::&##%&&:1441111111<;=;::>40091::;;:&#O%>160d041>1::>11421>::1<;;;;;;;;;;;;",
";;;;;;;;;;;;;<1:$&11121:&&>3&#$>11>>>>>>&%&13<;;::>1464>::;;;:$#%>240dt41>>:&&>11>>&>13<;;;;;;;;;;;;",
";;;;;;;;;;;;;;<1:>>1441>>17q7<&&&&&>1222>&$&>1:;;:>>111&::;*;1&#$:149t941>&&%$&&&&:>4631<<<<:;=;;;;;",
";;;;;;;;;;;;;;;<11>111>&:8yiy8&##$&146464>$#$>1:;:>>>&&&::;*;<:%%&114441>&&&&#$%&&>1441111111:;;;;;;",
";;;;;;;;;;;;;;*;<42&&&#+$5isy<OO#:14990941:$o$>1:;<<:$#$&:;==;:1&&&>1211:&$>>&#$>11>>>>>>&&&>1<;=;;;",
";;;;;;;;;;;;;;*;1>>&&%$+#<qyw<#O#:149dd041>$O&11;*;<:$#==;;;;;;<1>:11211>&:7q7:&&&&&>1111>&%&:1<;;;;",
";;;;;;;;;;;;;;;:1&%&&&&$#&183:%#$:149dd941:%$>1<;=;;<&=;;;;;;;;;<311111>>-<yii<%##$&144444>&#$><;;;;",
";;;;;;;;;;;;;;<1>::11>>&$%%$O#>&%%>4909641&$%:<;;;;;;<::;;;;;;;=;<61>&%$#O$eii=oO$:11499941>$O@:3;;;",
";;;;;;;;;;;;;;1>&>14441>&&$#o#&>>&&146441>&##&<:;;;;;;::;;;;;;;;;11>&%%$#o@7yq=Oo$>149dt942>%##:<;;;",
";;;;;;;;;;;;;;1>&2669941>:&$##%>1>&&1441>>&#o$<<;=;;;;;;;;;;;;;;31&%&&&&%##13<:$O$:140dd941>%$&:<;;;",
";;;;;;;;;;;;;<:&:190t041>>&$$&&:>11>&:>:&$#%:<<;;;;;;;;;;;;;;*;<1>&:>11>&$$:$O%:&$%>4900941&$$><<;;;",
";;;;;;;;;;;;<1&&>29td041>>&%&>1:>121>::&&&&:1<;;;;;;;;;;;;;;;*:1>&:14441:&&&#.#&>&&&144942>&##&1<==;",
";;;;;;;;;;;;<1&&>29009411>&&>4411>2441>>>133<;;;;;;;;;;;;;;;;;:1&:144962>>>&$##%>11&>1441>&%@O$13==;",
";;;;;;;;;;;;::$$>1499421>>>>1466411141<<<:<:;;;;;;;;;;;;;;;;;:<:&:260d04>>>&%%&&&111>&>>:&%$$&>:;;;;",
";;;;;;;;;;;;:&#$:124421>>>>>490091113<<<;;;;;;;;;;;;;;;;:;;=;<:&&>49ddt4>11&&:>>>>121:&&&&&&:11;;;;;",
";;;;;;;;;;;<:&O#&>1111>11>>>4tdd9211<;;==;;;;;;;;;;;;;;<11;*;<:&&>29tt06111&&>1441>144>>>113<<;;;;;;",
";;;;;;;;;;;;:>&&$&&::&>24>&>40dd941>1:;;;;;;;;;;;;;;;::=&&:;;:&$&>149994111&>246641>331<<<<<;;;;;;;;",
";;;;;;;;;;;;:11&O#$%%&>44&&>499092>>1:;;;;;;;;;;;;;;;:&#+$&:::$#%:124441>11&>490092>13<<<;;;==;;;;;;",
";;;;;;;;;;;;;;:$ooO#$:33<&&&44444>&&1:;;;;;;;;;;;;;;<:%$#$$:1>%#$&&>11>:111:140dd04>11;;=;;;;;;;;;;;",
";;;;;;;;;;;;;;<&$$=&::<<::&%>2111>&&1:;;;;;;;;;;;;;::&&&&&$:11:&$$%&>>&&41>&>40dd94>11:;=;;;;;;;;;;;",
";;;;;;;;;;;;;;11:<<1<;;;:>&$&>>>&&&&<;;;;;;;;;;;;;;::&:>11&>><33%#$%&&&>61>&>490942>>1<;;;;;;;;;;;;;",
";;<::&:<;;;;;;;;;;;;;;1<;<:%%&&&%#%&<;;;;;;;;;;;;;;;::>4441>:;<<#oO##%>11<:&>146441&>><;;;;;;;;;;;;;",
";;:=$%::;;;;;;;;;:<;;<11<<:&##%$##$:<;;;;;;;;;;;;;;::>19t041:;;<=$$$&&:<;::&&>1211>&>1<;;;;;;;;;;;;;",
";;=@O#%:<;;;;;;;;13331>>131:#O####&:<;=;;;;;;;;;;;;::>29dd41:;;<11<111:;;<1%$&>>>>&%>1;;;;:::::;;;;;",
";;=#$&&&:<<;;;;;;::&>>#O$144:#o$:1<<;;;;;;;;;:::&&:>1>16092>>11111<<<:;;=:<&$$&:&&%$>1;=:<<::&%&:;;;",
";;=&&1>>::<;;;;;;:$O$%OoO&143:#&13<;;;;;;;;;;&&&>>>11>>1441>>11>>:::;;;;=;<>&#$%%$#$:<;;>>>:&%#%&;;;",
";=&>1442>::;;;;;<:#.oO###O$:463::;;;;;;;;;;;:$#&1641>>>&>>:1111>&$#%&;;;;;;3:#OO###$:<;:1&&>&%##&<;;",
";;:>49061::;;;;;<&#oO#$%%$$$>46<==;;;;;;;;;;:%%:7yu61>&%%&::>1442&#&&;;;;;;<<:@o#&1>:;<:>>242>%#$::;",
";;:>40t91>:;;;;:<&##$%%&::%#=14<;=;;;;;;;;;::%%1eiur1&:<<::&:49091$%&;;;;;;=<3$#&<31:;<:&49092&$$:;;",
";;:>29961>:;;;;:1$#$%&&&>>&&%&>3<*=;;;;;;;<<&##1wur6>-5yy7$%>60t91&#$<;;;;;;;;111:;;::&&&4td04&&&;;;",
";;<>1444>::;;;;:1$#%&>>>11>>&&&11;;=;;;;;=;;=##&1664>>5iyq$#&4904>%%=:;;;;;;;;:11;*;:&#$:40t02&&:;;;",
";;<>>>1:&&:;;;;:1$#&>1111111:&&>1<;*;;;;;;=;;=%%-,21>-<iy7$$&1441:&::;;;;;;;;;;;:;;;:&O#&14441&::;;;",
";;;1>&&$$:<;;;;:1%$:>14444441:&:13<;;;;:<31<<111>>>&$+$<<:%&>>>>&&>>:;;;;;;;;;;;=;<3<&##&>1>:&>:;;;;",
";;;:::$##:<;;;;:1&%:1449944421&&:1<;;:1111>>:<1111>&$#$&%$%&>>>>::::;;;;;;;;;;;;;<1111::::>>&:1;;;;;",
";;;;;<$#$:<;;;;:1&&>1490099441:&&1:;;141:&&&&$%>44:&&:&%#$&>>111<;;;;;;;;;;;;;=;<>&$163<<::>>><;;;;;",
";;;;;;:&&:;;;;;:1&&>249tddt941>&&<<<32>&%%$$#oO%>1>1441>&&>12111;;;;;;;;;;;;;;;<1%OO$:::;;;;;;;;;;;;",
";;;;;;:::;;;;;;:1:&>249dddt942>&:<1141&%%&%$$oo%>116094>&:19941>:;;;;;;;;;;;;;<1&#OOO#%:;;;;;;;;;;;;",
";;;;;;;;;;;;;;;:1:&>249tdd0942>&:344>&&>>>&&&##>1249t04>:>4td91>::;;;;;;;;;;;;1:##$$#O#:<;=;;;;;;;;;",
";;;;;;;;;;;;;;;:1&&>1449009441&&164>>>1111>&&$#%>249t941>>49061&::;;;;;;;;;=;<>&%%&&%$#&1;;;;;;;;;;;",
";;;;;;;;;;;;;;;:1&&>124499442>&>291&>244411>&&$#$&169411>>1444>&::;;;;;;;;;;<3:&&::::&#&1:;;;;;;;;;;",
";;;;;;;;;;;;;=*;<1>&>1244442>:&>44>&44496421>&%#Xo&22::1>:&>1>&$:<;<<;;;;=;<11&&>111>>%&:<;=;;;;;;;;",
";;;;;;;;;==;;;;;<31&&>11121>>&&11>:>49909642>:%@OO&:&&&><:&&&%%&><:11<<<<;;<1:&>24441>&&:<:=;;;;;;;;",
";;;;;;;;;;;;<<<<<441&&>111>>&&&>>&:149tdt942>:%O#&:=#&::<<:%#@&1>&&&>1111<;1>&>1466441:&:<;=;;;;;;;;",
";;;;;;;;;;3441>>1499>&&>>::&%&>>>&>249ddd0421>%O&1:==:<;;;<;$@&1$OO#%&&:1331>&>4990092>::<;=;;;;;;;;",
";;;;;;;;<331>>::>>142>%%&:&$%&>&&&>4490dt9441:%#&1<;;;;;;;<;;&13$O#%&::::1141&>49tdt92>::<:;;;;;;;;;",
";;;;;;;<31>&&&:::&&>22%#$&$#%:>$#&>1449099441&%&>1<;;;;;;;;;;331%#%>1111::>61&>49ddt92>::<<;;;;;;;;;",
";;;;;;14:&%&:11121:&>11$OOO+%&%##&>124499441>%$>1<;;;;;;;;==;1&##$&>14444>>41:>1490994>&&<<=;;;;;;;;",
";;;;;<1>$$&:1444441:&>1:$#=<1&#O#&&>1244421>&%&1<;==;;;;;;=;;1=OO$>1499091>21::1449941>&::;=;;;;;;;;",
";;;;<4&O#$:144999441:&>>>:8uw<OO#%&&>12211>&$&13<;;;;;;;;;;;;<&##%>290tt92>>&&::14441>&>1;==;;;;;;;;",
";;;1>$O@$&&149909941>&$%:8ysy5$oX#$%&&:::&&&&11<;;;;;;;;;;;=;<:%#$>290dd94>>:&&&>111>&>13;;:;;;;;;;;",
";;;4>OO@%&>149tdt0641&#$1uipiq1#O$$&&&&::&&:11<;;;;;;;;;;;;=;<:&#$:149dd94>>&&#$&&&&&>441:<1<::;;;;;",
";;;1>&#O$&>149ddd0641&$&3uiasy8:&:::>>>>>>113<;;;;;;;;;;;;;;;;<1$#&>149941>&&&@O$%%&>4941111111:;;;;",
";;;;:2&##&>149tdd061>::>13qyy7:$%&:>1111494<;;;;;;;;;;;;;;;;;=:1:&&&>14411:$&>:&%&>>1111>>>:&&11<;;;",
";;;*:4&##&:114999941>11&%=5ww;OO#&&>>111496<;;;;;;;;;;;;;;;;;=;<11:&:11111:%:383::>>>::>>>>&%$&11:;;",
";;;;;:#O$&&>2444442>241@.O&1>#.O#$&&&:>&&:243;*;;;;;;;;;;;;;;;=;<131111211:>3ysi8&##$:144441>&#%>1:;",
";;;<<&oX#%&&>244111221$Ooo#&&$XO$%&>>111>&>141;=;;;;;;::::::<;;;;<342>:&&$$#5isi8$O$&>2699641&$##><<",
";=;11&OX#$%&&>111>141%O##O#$:&O#%&>124442>&>443;=;;;;:>>>::::;;;*;<41&$##OOo;yie<@O&>149tt941&%OO:<5",
";;;;<1:$OO$%&&&&&>11&#$%&$$%>&##%>>1449444>&&24<;*;;:&&>>:&$#&:;=:1&&&&&&$#O=383>#O%&149td941&%$%1<;",
";;;;;<1<&$##$&&&:11:$$&:&&%&>>&$%>144909441:&14<;*;:::>241>#O&&;<<>&&::::&%#%-%%&%$$&14900941&%%:1:*",
";;;;;;<33:$#$&&>141$%::>>&&&>>:$%14490tt941>&>1<;;:&&>4906>%#&=;31&>1111>:&&&$XX$>>$&>4499641&$%&<;*",
";;;;;;;;;<11111342&$&>1111>>>>1&%>249ddd044>&>11:;::&16tt9>&==;<1>&>44644>:>&$OO#&1>&&144441>&#O#1<<",
";;;;;;==;<31<<<34>&%:111111>>11&&>249tdd044>&&>1<;&&&>6t04>>:;;<:&:1490991:1&$$$$&>1>::>111>&$##$1<<",
";;;;;;;;;;;;;;;:1:&&>1444441>12:&>249900941>&%&11<$#$:4942>11;;<&&>290tt92>1:%&:>&&>11&&&::&##%>1<;;",
";;;;;;;;;;;;;;;<1:&>14699942>>11:&144999421>&$$>11&$#&>1>>1:;;:1&&>290tt9411>&&>11>>1141->>>:>1<:;;;",
";;;;;;;;;;;;;;;<3:&>249tt094>>111&>2246421>:&##&11:%##&:->1:;;<>%%>240006111>&>14441>163>>>>113;;;;;",
";;;;;;;;;;;;;;;<3:&>240ddd041>142&:>11221>&&&Oo#:1:&$#&:>><;=<<:$$&1469941>1>&1499941>33<<<<;;;;;;;;",
";;;;;;;;;;;;;;;<3:&>249tdt94>>>44>&&>111>&&%$##&11:==:::::;;;<:$O#&>14441>>1>:160dt9211<;;;;;;;;;;;;",
";;;;;;;;;;;;;;;<3:&>14900094>>>491&$&>>>&&%$#$:13<;;;<<:;;;=;<:$##&:>>11>111>:290dd9411:;*=;;;;;;;;;",
";;;;;;;;;;;;;;;<3:&&144996641::244>$#$&&&%$#$>43<;;;;;;;;;;;;<11>&#&:&&&&161>>290dt92>><<;;;;;;;;;;;",
";;;;;;;;;;;;;;;<1>&&>2446442>::11131&$$###OO#>1<;=;;;;;;;;;;;;:<1%O#$$$&>13>&>1499992>>1<;;;;;;;;;;;",
";;;;;;;;;;;;;;;:11&%:1124211&&><<;341&#@OOooO&:;==;;;;;;;;;;;==;:$oO@#$&1<<:&&1244441>>1<;=;;;;;;;;;",
";;;;;;;;;;;;;;;;<1:#&>>>>>>&&&>1<;;<342>&%$#$:1<;=;;;;;;;;;;;;;;1:#%&&>>;;;1&$>11111>&>1<;;;;;;;;;;;",
";;;;;;;;;;;;;;;;<1:#$&:>:>&%$&>1<**;<11111>::11<;=;;;;;;;;;;;;;;<1:::<<:;;;1:#&:>>>>&&><;;;;;;;;;;;;",
";;;;;;;;;;;;;;;;;1>##$&&&&%$#&11;*;;**;<<333331;;;;;;;;;;;;;;;;;<<<<<<;;;;;1:$$$&&&&$%1<;;;;;;;;;;;;",
";;;;;;;;;;;;;;;;;1>#OO#$%%#O#:3<;;;;;;;;;;;;;;;;;;;;;;;;;;;;;;;;;;;;;;;;;;;;:>##%$#OO$1<;;;;;;;;;;;;",
";;;;;;;;;;;;;;;;;<:$##&$##O#:1<;=;;;;;;========;;;;;;;;;;;;;;;;;;;=;;;;;;;;=<1%#####$&1<;;;;;;;;;;;;",
";;;;;;;;;;;;;;;;;<:&&>4&oXO&43;==;;;;;;;;;;;;;;;;;;;;;;;;;;;;;;;;;;;;;;;;;;=;<1%XO%1>><;;;;;;;;;;;;;",
";;;;;;;;;;;;;;;;;:14114:OX$41:==;;;;;;;;;;;;;;;;;;;;;;;;;;;;;;;;;;;;;;;;;;;;;;<:$$:11<;;;;;;;;;;;;;;",
";;;;;;;;;;;;;;;;;;143<11&$:4;*=;;;;;;;;;;;;;;;;;;;;;;;;;;;;;;;;;;;;;;;;;;;;;;=;<<1<<<<;;;;;;;;;;;;;;",
";;;;;;;;;;;;;;;;;;;;;=;1641;==;;;;;;;;;;;;;;;;;;;;;;;;;;;;;;;;;;;;;;;;;;;;;;;;=;<31=;;;;;;;;;;;;;;;;",
";;;;;;;;;;;;;;;;;;;;==;<31:*=;;;;;;;;;;;;;;;;;;;;;;;;;;;;;;;;;;;;;;;;;;;;;;;;;=;;<<;;;;;;;;;;;;;;;;;",
";;;;;;;;;;;;;;;;;;;;;;;::;==;;;;;;;;;;;;;;;;;;;;;;;;;;;;;;;;;;;;;;;;;;;;;;;;;;;;;;;;;;;;;;;;;;;;;;;;"
};
