/* XPM */
static char *spring[] = {
/* columns rows colors chars-per-pixel */
"64 64 64 1 ",
"  c black",
". c #FFA4C3",
"X c #FFAAC6",
"o c #FFADC9",
"O c #FFB4CD",
"+ c #FFB5D1",
"@ c #FFB9CF",
"# c #FFBCD2",
"$ c #FFBFD9",
"% c #FFC2D6",
"& c #FFC6D9",
"* c #FFCCDC",
"= c #FFCECF",
"- c #FFCED1",
"; c #FFCFE0",
": c #FFD0CF",
"> c #FFD2D3",
", c #FFD3DD",
"< c #FFD4E2",
"1 c #FFD7E8",
"2 c #FFD8D7",
"3 c #FFDBDC",
"4 c #FFDBE4",
"5 c #FFDEE8",
"6 c #FFE2DE",
"7 c #FFE2E4",
"8 c #FFE3EC",
"9 c #FFE9ED",
"0 c #FFECD9",
"q c #FFECE5",
"w c #FFECF2",
"e c #FFF2DC",
"r c #FFF2F6",
"t c #FFF5E3",
"y c #FFF6EE",
"u c #FFF6F9",
"i c #FFFCDA",
"p c #FFFDE4",
"a c #FFFED5",
"s c #FFFFC3",
"d c #FFFFCC",
"f c white",
"g c None",
"h c black",
"j c black",
"k c black",
"l c black",
"z c black",
"x c black",
"c c black",
"v c black",
"b c black",
"n c black",
"m c black",
"M c black",
"N c black",
"B c black",
"V c black",
"C c black",
"Z c black",
"A c black",
"S c black",
"D c black",
"F c black",
/* pixels */
">>>>>>>>>>>>>>>>>>>>74>>>>>>>>>>>>>>>>>>>>>>>>>>>>>>>>>>>>>>>>>>",
">>>>>>>>>>>>>>>>>-34O*8,>>>>>>>>>>>>>>>>>>>>>>>>>>>>>>>>>>>>>>>>",
">>>>>>>>>>>>>>>>>34#OO#,>->>>>>>>>>>>>>>>>>>>>>>>>>473>>>>>>>>>>",
">>>>>>>>>>>>>>>>>4*%*%#,3->>>>>>>>>>>>>>>>>>>>>>>>7%#84>>>>>>>>>",
">>>>>>>>>>>>>>>>34&<<<&*3>>>>>>>>>>>>>>>>>>>>>>>>7&O#O*3>>>>>>>>",
">>>>>>>>344443>>4*<885,*3>>>>>>>>>>>>>>>>>>>>>>-3,#*&#&3->>>>>>>",
">>>>>>>>3%#&*473,*5wrw4*3>>>>>>>33>>>>>>>>>>->>>4*<<<*%4>>>>>>>>",
">>>>>>>>7%#*<<<87*8rfw4<,>>>>>>,*%,>>>>,444443=4*,5884*<>>>>>>>>",
">>>>>>>4%#*4884<8*5wrw4*3>>>>>>%O%&4>>=3*O%*<534*48rw8*<3>>>>>>>",
">>>>>>>3O#<8wr8<<*<888<*4>>>>>,**4<;3>-7*#*<<*48*4wfr8<<3->>>>>>",
">>>>>>>3*#<8rf8<<**44<*43>>>>>>*<ww<,>4*@&<888,8<49rw8,<3->>>>>>",
">>>>>>>>4#*5ww8<,&#*&*894474>->,4ru4,>3%O*4wrw<4,<5884*4>>>>>>>>",
">>>>>>>>34%<454**7%%44<<<<&,7>>,<89<,>>,#*5wfw4<,*<4<*47>>>>>>>>",
">>>>>>>>>34<484<qat;%%<888<#*4>,<<<*,>=4%&48w8<**#&&*5w4447,->>>",
">>>>>>>>>=38**#+0deOO,5wrw4*o*4:3,#%,>->4**454,%4,#<4<<<<*&43->>",
">>>>>>>>>>4&**&#,t7%@,5rfw5*%43->3%->>>>>74454<<ia<%%*5884*#42>>",
">>>>>>>>>4<,54<&&#o<*&5ww84%&3>>>>3,>>>>->9<&%OOaa@o*48rw8<#O7>>",
">>>>>>>>>4*89w5<,%@&4<*584<%o,3->>>>>>>>>7*&**%O76*O*4wfr8<%*3>>",
">>>>>>>>3*,8uu8<<%*,,54*,*%%43>>>>>>>>>=3<*454*%*.*<%<8ww5*#<3->",
">>>>>>>>4&<8rr84<*484<88<<473>>>>>>>>>>>4*48w8<<*##<4*485<&O%7=>",
">>>>>>>>,#,5884<<<8ww44733>>>>>>>>>>>>-3,*5rfw<4&*<*45***&%,4>>>",
">>>>>>>3*O*<44<5<<wfu543>->>>>>>>>>34>=3**5ruw44*<58<49<<473>>>>",
">>>>>>>>44#&*&<9*<wrr5<4>>>>>>>>>>,##,>,#*4898<4*8ww8<7332>->>>>",
">>>>>>>>>,oO#*73**888<*4>>>>>>>>>3*%%%4<#%*<4*44,8uf9<4>->>>>>>>",
">>>>>>>>>4,343=,<%<<<**3>>>>>>>>>,*<4*<37%%***9<*8rr8<43>>>>>>>>",
">3,*3>>>>>>>:>7>3&%*&#*3>>>>>>>>>,<8w5<>3OO#&43,*4885*<3>>>>>>>>",
">-O#*3>>>>>777<47,O###,3->>>>>>>2,<wf8<>34344>>4%*<<<&4>>>,,,>>>",
">-%<*,3>>>>,#<oO49,o,73>>>>>>,,;<4<8w4<44<32>>-3*#**%%4=,4,*%*>>",
">*<88<,>>>3*.O##O,97,>>>>>>>,#*98<<*<,44<*#*>>>>7#O##%3>4*<*#%3>",
">,4rr4,>>>3%O%&**#,9>->>>>>>,$6dp5***,*8w8%*>>>>>7O%74>3*8w8*#,>",
">,<ww4,>>>4#%**<<*&<7=>>>>>3*+4py<<ii%*wu8*#3>>>>>44>>,**wfw**>>",
">3<44*,>>>4#*<4444**43=>>>-=>%&18<<ai%&5w4&,>>>>>>>,->,O*8w8*,>>",
">>4*%%3>>>4%,488884*,7>>>374374<<%O,*&<<<*<,>>>>>>>=37,%&<<*<>>>",
">>>3#%3>>>4&<5wrw85,*4>>84***&48***&#*<443>>>>>>>>-3<&973,<<3>>>",
">>>>,,>>>>4*<8wffw8<*338<%&%#.&<4w8<*4844>>>>>>>>>34OO%*2>>>>>>>",
">>>>>>>>>>4*<8wfuw8<*78<*<<**O<58uw<,8f9<,>>>>>>>>4#%%O%3->>>>>>",
">>>>>>>>>>4&<58ww85*<w<<854<*%%<8r84<5w8*,>>>>>>-7*****#4>>>>>>>",
">>>>>>>>-=34*45885<*58*88w85<*@.<5*4,*4<%323>>>-34*<44<&,3->>>>>",
">>>>>>->3339<*444<**4*<8ruw8<*O%,#*,3*%#<<,<474>4*<8985*,3->>>>>",
">>>>>>684<48w**<,*&<<*58ufr84*O4,-3>>3-#7@O%**474*4wrr8<,3->>>>>",
">>>>>74**,,*<8%%*#*<#*48wrw84&&43>>>>>>77%%<44,<9*4wfu8<,3>>>>>>",
">>>>8*%,4584*<4@O#*%O*<58w85<%43=>>>>->4O#*48w8<8,<8ww8<*3->>>>>",
">>>8##*48ww84*<<,pqOO&*<554<%<7>>>>>>>>3##<8ruw<<*,4884*4>->>>>>",
">>8OO&*4wrrw5<#*psi*.#%**,*&<7>>>>>>>>-3*#,8rfw4<*&<<<*47>3>>>>>",
">>4*O%<5wffw8<%4psaq*,,<<<<47>>>>>>>>>>>4#*48w8<**O%&*5w44444>>>",
">>=8%#,48rrw4,4;3pe##*<445r7=>>>>>>>>>>-34**444,%47*<4<,<<*%,7>>",
">>>,O%*<8888<8,.O<*.#%**<**87->>>>>>>>>>-374454,<idq##*5885,#*4>",
">-7&.#&*<54<8<O#O%,O%*<588<*87=>>>,<,,3>>=38*%#OOid6o*<8rr8<&o,6",
">>>7,O#&***44@&*%&<%%<48w88<*83=>,*<<*O*>>4&***%O47<O&<8uu8<&&4>",
">>>>67%#&*48%*,<**<,%48wur84*43:,*4ww<#*>7*<44<*&&.%<%<8ww8<%*3=",
">>>>->77779<%<444<<4&<8rfu95*<4>,*5ur<*>3<*59w8,<%##<4*4884*#o43",
">>>>>>>>>>4**48884<5*<8wrr84*&43%%4w8<4>3*<8ruw<4&*<*<5**,*#&43>",
">>>>>>>>>>7*<8wrw8<44*58w85<*#<7*#&<;4>>4&<8ru944*<55<49<<<47>>>",
">>>>>>>>>>7*<8rfu9<48*<455<**o%4,%%,<3-3,#*59w8<4*5ww8<7333>>>>>",
">>>>>>>>>>7*<8wur8<<w<%<<<*&#%47>>3,>>=3%O*<45<44,8rfw44>=>>>>>>",
">>>>>>>>>>7**58w98<,88*#**&#%86>>>>>>>>34<#****9<<8ruw<<3>>>>>>>",
">>>>>>>>>>4<&45854*<329<#OOXO,>->>>>>>>->,oO#%43,*5898<<3->>>>>>",
">>>>>>>>>>34#*<<<*&<7=>78<*&&43->>>>>>>>>4&*,4>>4%<44<*<3>>>>>>>",
">>>>>>>>>>>4#%***%#43=>=>37777>>>>>>>>>>>3333>>>4%%***%4>>>>>>>>",
">>>>>>>>>>>4#O#%%O*7>>>>>----->>>>>>>>>>>>->>>>>>4O%#O#4>>>>>>>>",
">>>>>>>>>>>3**8OX&9>->>>>>>>>>>>>>>>>>>>>>>>>>>>-3<X#4<3>>>>>>>>",
">>>>>>>>>>>,977&O9>->>>>>>>>>>>>>>>>>>>>>>>>>>>>>-3,,33>>>>>>>>>",
">>>>>>>>>>>>>=>98>->>>>>>>>>>>>>>>>>>>>>>>>>>>>>>>-37->>>>>>>>>>",
">>>>>>>>>>>>>>>,>->>>>>>>>>>>>>>>>>>>>>>>>>>>>>>>>>>>>>>>>>>>>>>"
};
