/* XPM */
static char *summer[] = {
/* columns rows colors chars-per-pixel */
"64 64 219 2 ",
"   c #35FFB6",
".  c #3EFFB3",
"X  c #37FFBC",
"o  c #49FFB7",
"O  c #45FFBB",
"+  c #54FFBD",
"@  c #5CFFBF",
"#  c #68FFBE",
"$  c #75FFBE",
"%  c #7DFEBA",
"&  c #1CBDEE",
"*  c #1EBBF0",
"=  c #25B7F6",
"-  c #29BCF6",
";  c #27B6F8",
":  c #2BB6F9",
">  c #2CBAFA",
",  c #31BAFC",
"<  c #38BFFB",
"1  c #27DFDC",
"2  c #2ADCDE",
"3  c #1FFFCD",
"4  c #25FFC6",
"5  c #25FFCB",
"6  c #2BFFCC",
"7  c #34FFC5",
"8  c #3CFFC4",
"9  c #33FFCC",
"0  c #3BFFCC",
"q  c #26EDD7",
"w  c #27E2DA",
"e  c #2BE3DC",
"r  c #26E9D8",
"t  c #2BECDA",
"y  c #35E8DF",
"u  c #33ECDD",
"i  c #26F7D5",
"p  c #2AF6D6",
"a  c #26FCD2",
"s  c #2BFDD3",
"d  c #2BF6DB",
"f  c #33FED4",
"g  c #3CFFD3",
"h  c #32F4DA",
"j  c #36F5D9",
"k  c #33FCDB",
"l  c #3CFDDA",
"z  c #1CC2ED",
"x  c #2ACFE6",
"c  c #21C5ED",
"v  c #25CBED",
"b  c #2BCCED",
"n  c #33CEEC",
"m  c #3CCEEE",
"M  c #2CD3E4",
"N  c #2DDAE1",
"B  c #32DCE3",
"V  c #37DBE7",
"C  c #35D2EC",
"Z  c #3CD2EC",
"A  c #24C3F5",
"S  c #2CC3F5",
"D  c #28C4F6",
"F  c #2EC1F8",
"G  c #33C5F6",
"H  c #3BC6F7",
"J  c #34CAF4",
"K  c #3CCCF4",
"L  c #34C2F9",
"P  c #3BC3FA",
"I  c #2DD2F1",
"U  c #33D1F0",
"Y  c #3DD2F1",
"T  c #2EE7E1",
"R  c #32E3E3",
"E  c #36E9E4",
"W  c #2EF5E1",
"Q  c #38F5E1",
"!  c #43FFC5",
"~  c #4BFFC3",
"^  c #43FFCB",
"/  c #4CFFCC",
"(  c #53FFC4",
")  c #5CFFC4",
"_  c #5BFFCB",
"`  c #43FFD3",
"'  c #4BFFD3",
"]  c #43FEDA",
"[  c #4CFFDC",
"{  c #54FFDA",
"}  c #5BFFD9",
"|  c #64FFC3",
" . c #63FFCC",
".. c #6CFFCB",
"X. c #74FFC4",
"o. c #7CFFC4",
"O. c #73FFCA",
"+. c #7CFFCC",
"@. c #63FFD5",
"#. c #6CFFD1",
"$. c #67FFDB",
"%. c #75FFD5",
"&. c #45D4ED",
"*. c #59D3ED",
"=. c #43C6F7",
"-. c #44CCF5",
";. c #43C5F9",
":. c #49C7F9",
">. c #4DCAF9",
",. c #52CDF4",
"<. c #52CAF9",
"1. c #5BCDF9",
"2. c #43D2F3",
"3. c #4BD2F5",
"4. c #54D6F7",
"5. c #5BD3F6",
"6. c #5BD9F7",
"7. c #6AD5EB",
"8. c #62D5F4",
"9. c #68D6F7",
"0. c #63DAF7",
"q. c #6BD5F9",
"w. c #6CDCF8",
"e. c #72DBF8",
"r. c #7ADCF8",
"t. c #4DF3E3",
"y. c #48F9E1",
"u. c #76FFE0",
"i. c #76E1F8",
"p. c #7BE2F8",
"a. c #83FEBD",
"s. c #95FDBC",
"d. c #9AFCBC",
"f. c #A0FCB8",
"g. c #B8FABC",
"h. c #C4F9BD",
"j. c #CDF8B9",
"k. c #DCF7BC",
"l. c #D3F8BB",
"z. c #FFEFAE",
"x. c #F9F0AF",
"c. c #FFEFB0",
"v. c #E3F4B2",
"b. c #EBF3B4",
"n. c #E7F6BC",
"m. c #FEF1B3",
"M. c #F4F3B9",
"N. c #FEF2BA",
"B. c #84FEC4",
"V. c #8BFEC4",
"C. c #83FECA",
"Z. c #8CFECC",
"A. c #99FECA",
"S. c #88FFD8",
"D. c #99FED7",
"F. c #A4FCC3",
"G. c #AAFDC8",
"H. c #B4FCC3",
"J. c #BBFBC4",
"K. c #B3FCCB",
"L. c #BEFCCD",
"P. c #A5FED6",
"I. c #B7FDD7",
"U. c #85D9ED",
"Y. c #99DDEC",
"T. c #87DBF7",
"R. c #95DEF9",
"E. c #95FDE3",
"W. c #86E4F8",
"Q. c #8DE4F9",
"!. c #95E6F8",
"~. c #9CEAFA",
"^. c #B9E5ED",
"/. c #A7E6F5",
"(. c #A4E6FB",
"). c #A2EBFA",
"_. c #ABECFB",
"`. c #B9E8F7",
"'. c #B1ECFA",
"]. c #BAF1FB",
"[. c #C4FBC4",
"{. c #CAFAC6",
"}. c #C3FCCB",
"|. c #CCFBCB",
" X c #D3F9C3",
".X c #D9F9C7",
"XX c #DCF9CC",
"oX c #C9FCD5",
"OX c #D8FBD6",
"+X c #E6F7C8",
"@X c #FDF4C5",
"#X c #F6F6CB",
"$X c #E5FAD6",
"%X c #FDF6D1",
"&X c #C9E9EE",
"*X c #D6EBEE",
"=X c #C1E6F4",
"-X c #C5E9F4",
";X c #CBEBF5",
":X c #C5ECFA",
">X c #D5EDF2",
",X c #DCEEF1",
"<X c #D2EFF9",
"1X c #C7F3FA",
"2X c #DAF3F8",
"3X c #E7EEEC",
"4X c #EBEDED",
"5X c #F1F0EE",
"6X c #E4EFF2",
"7X c #EBEFF1",
"8X c #E5F6F9",
"9X c #ECF6F8",
"0X c #E4F9FC",
"qX c #EDFAFC",
"wX c #F3F4F4",
"eX c #F6F7F7",
"rX c #F9F6F5",
"tX c #F5FBFC",
"yX c #FCFDFE",
/* pixels */
"0XtXqX/.6.6.K J L L F D - - - - - - : > D > F > > > > > > > > > > > > > > > > , : < : : : : : , , , , , , , : , , , , , : , : , ",
"yXyXyX`.3.3.K J L L F - - - - ; > > = > > > > > > > > > > > F > > > , , , , , , : < : < : < , , , , , , , , , , , : : , , , , , ",
"yXyXyX>X*.Y K H G F > > ; > > = = = > > > > > > , > > > > , > > > , , > , : , : : , , : , , , , , , , , , , , , , , , , , : : : ",
"yXyXtX,X8.U -.Y J L F - = = = = = = = = > > > > , , , > , , : , > > , , , , , , < : , , , , , , , : , , , , , , , : : , : , , : ",
"tXyXqX,XU.Y C Y J F F - = = = - = = = = > > > > > > > > > > , , > > > , , , , : , : , , , , : < , , , , , , , : , , , : , : : : ",
"qXqXqXtX*XW.Y &.C n v - = = = = = = = = = > > - > > > > , > : : > > , , , , , , , , , , , , , : , , , , , : , , : , : , : , : , ",
"0XqXtXyX9X&X8.Y C C b - = * * = = = = = > : : : > > > > > > > > > > , , : > , , , , : < : < : : , , , , , , : , , : : , , , , : ",
"qXqXyXyXtX,XU.C 2.C F - - - = = & = - = = - : : > > > > > > > > > > : : : > > > , : : : : : > > : : : , : : : : : : : : : : , , ",
"yXyXyXyXyX3XY.C C b v D v - * * & - & * = = = : : : = > : : : , > > > > : : , > > > > > ; ; > : - > < : : - , , : < > > > > G P ",
"yXyXyXyXyX9XY.m C b z D & * & * & & * * * = = : = = : = : : : : > > > > : : , > > > > = : : ; > > , : : : : , : : , , , , L L ;.",
"yXyXtXyXeX8XY.C b b c z z z & z & & & & * = = : > > : : : : : : : : ; > : < : : : : > ; ; ; ; ; > > : : : , : < < , < , L , P ;.",
"tXtXtXtXeX9XY.n b v v z z z z z z & & & * = = = ; ; : : : : : : : ; ; > : : : : : : ; ; ; ; ; ; ; ; : : : : : , < < < < P P P ;.",
"qXtXyXqXtXtX-X6.v b v z z z z z z z & & * : ; : ; ; ; : : : : : ; : : : : : : : : : > ; ; ; = ; ; : : : , : , < < < < < P P ;.<.",
"8XtXyXtXyXyX9X!.I b v v v v v v & v v & = : : : ; ; : : : : : : ; ; : : : : : : : : > = ; ; = = ; ; ; ; : - , < P < < ;.< ;.U.Y.",
"2XqXyXtXyXyXtX;Xr.U.7.7.7.*.b F b - * * * : : : : : : : : : : : : ; : ; : : : : : > > = = = = = = - = = * F G P =.P J ;.< 7.^.*X",
"2X0XtXyXyXyXyX,X8X,X&X&X>X^.7.n -.D D - - : : , : : : : , : : : : : : : : : : ; : : = = * ; = = = - - * F F F G =.-.>.>.:.Y.,XtX",
"2XqXyXtXyXyXyXeXyX9XtXyXyX9X^.9.,.;.L , - > , > , : : : , : : : : : : : : : : : ; ; ; ; ; ; > > : - F G J F J J 2.2.*.r.U.^.7XyX",
"0XtXyXyXtXyXtXtX9XtXyXyXyXtX,XR.8.>.P , , L , G , - - : : = : = : ; ; ; : : : : : : ; ; ; ; > > - , G G J H K Y 2.3.r.&X*X*X9XtX",
"qXtXyXyXtXtXyXtXqXqXyXyXyX9X6X/.9.,.P < , P , L , , > : : = : = : : : = : : : : : : : : ; ; > : , P J :.2.3.3.0.~.'.-X8X9X8X8X8X",
"tXtXyXyXeXyXyXyXtXqXtX9X9X3X6X_.q.>.P P P , P , , , , : : : : : : : : : : : : : : : : : : : > L L -.:.5.6.9.q.'.0XqXtXyXyX9X8X8X",
"yXyXyXyXyXyXyXyXtXqX9X9X3X9X0X/.e.<.;., P , , L < , , , : : > > : : : : : : , : : : , : > > F L P >.1.q.p.W.!.8XtXeXtXyXyX9X0XqX",
"yXyXyXyXyXyXyXyXtXtXtXtXtXtX,X~.r.8.<.:.P P P , , , , : : : : > : : : : : , : , , : : : F > > L -.3.0.r.R.!.:XtXtXtXtXyXtX9XqXtX",
"yXyXyXyXyXyXyXeX9X9XyXyXyX9X,X/.W.q.8.<.:.P L , , : : : , : > > : : : : , : : , : : : , > F L K 2.6.q.!.!.'.2XtXyXyXyXyXtXtXtXtX",
"yXyXyXyXyXyXyXtX9XqXyXyXyX8X,X'.W.T.9.1.:.;.J G L : , , : , > > , , : , : , : : , : > , I F J 2.6.q.W._.].;X7XtXyXyXyXyXyXyXtXyX",
"yXyXyXyXyXyXyXyXqXqXyXyXyX8X,X`.).W.r.1.>.P P F F - > > > > > > : : > > > > > > , > L L J J K 4.i.!._.-X*X3XtXtXtXyXyXyXyXyXeXyX",
"yXyXyXyXyXyXtXtXtXtXtXyXyX8X6X>X].~.i.1.2.H J F D D A ; A ; ; A : : F > ; > > > > : , P P K 2.w.W._.<X6X9XeXyXtXyXyXyXyXyXyXeXeX",
"yXyXyXyXeXyXyXyXtXtXtXyXtX6X7X3X<X_.p.0.3.H I D A A A ; ; A A ; > ; D > - ; > F - G J H 2.2.4.9.~.].,X9XtXtXtXrXeXyXyXyXeXrX3XyX",
"yXyXyXeXyXyXyXyXtXtXtXtXtXeXeX7X8X1X~.p.6.;.I D A A A A A A A A > D ; D ; D - D , L P H 3.4.0.p.).;X5XrXyXtXtX5XyXyXyXeX5X4X4XyX",
"yXyXyXyXyXyXyXyXyXyX5XtXyXtXeXeX4X,X].~.p.4.J D A A D D A A A A - A > A A A > F D H < ;.2.6.8.W.^.qX9XrXyXyXyX3XyXyXyXyXeXeXeXtX",
"yXyXyXyXyXyXyXyXyXyXyXeXyXyXyXeX7X6X<X'.W.0.2.U F A D D A A A F F F > P F L F F I J H ;.-.6.e.Q.;X7XeXyXyXyXtX4X4XyXyXyXtXtXyXyX",
"yXyXyXyXyXyXyXyXyXyXyXtXyXyXyXyXeX9X8X_.~.p.4.2.Y U U J I U J L P ;.;.;.;.;.L K H K 2.2.3.6.e.Y.-XeXyXyXyXyXtX5X4XeXyXyXyXyXyXyX",
"yXyXyXyXyXtXeXyXyXyXyXeXyXyXyXeXeX4X8X].~.W.p.9.9.w.0.6.4.6.6.4.1.0.9.0.9.6.4.4.4.3.4.4.6.0.W./.*XtXyXyXtXyXtX5X3XeXyXyXyXeXyXyX",
"tXeXrX5XeX5X5X5XeXrXeXeX5XrXrX5XeXeXtX<X].'.'.)._._.)./.~.).W.!.W.W.!.W.W.W.p.p.e.i.p.i.p.W.~._.&X4XeX4X5XtXtXtX5X5XwXeXeXwXeXtX",
";X-X`.`.-X`.-X-X-X&X;X;X&X&X;X&X*X<X1X'.!.(.(.(.(.(._./././.!.W.Q.Q.W.!.!.~.~.~.~.(._.].].].1X1X>X,X3X3X4XeX5XrXeX5XwXwXeXwXtXtX",
"1.K -.&.:.&.:.&.=.-.-.,.8.*.,.:.<.<.>.:.:.;.;.<.<.<.8.1.<.,.-.-.3.6.,.>.9.9.e.9.9.r.T.T.W.R.R.!.R.R./.^.].:X:X1X>X;X;X;X;X:X6X9X",
"w t e e e 2 E B 2 B n V V V B M M n n n C J m m -.-.&.Z n V n B 3.&.&.b n n m &.m >.-.;.:.;.L L , P P P <.:.<.0.3.:.:.:.<.1.q.T.",
"E d t q q q w d 1 y 2 e e w 1 w e B 2 2 M M 1 B 2 V B B 2 1 1 1 2 2 2 2 2 N N N M B C C &.C C J K K P -.2.2.3.-.m G G G , G 3.6.",
"h k d p s s d d u y t.e u u u y E t w w 1 1 e h u h h h p w w q w 1 1 1 w 1 1 w w w 1 1 w B e T B B E B Y E B -.V V x M M M M t.",
"] l k k s d Q W y.t.t.j h p f ] l p 5 i i i i i s p p g f h p q q q q y.E q q q t w t q q t T T t E E E T V E E B B 2 e e e u h ",
"$.t.t.l k [ t.k W W t.g d p s l j f a 5 5 6 p s a i 6 4 6 5 5 p p 5 h ] ] 9 p p i a p d p i i d W W W W W Q Q E u e u h j u l t.",
"{ ] l l f l d i d h W W W d d k l h s s s s i i a 5 5 5 4 5 5 5 4 5 p [ [ ` a s s s s s f k k l l d k s k d h h h h h 0 8 0 0 { ",
"[ f f 6 5 a s i s k d W W Q Q Q h k d l g s a a a a a 6 6 6 9 5 4 4 5 6 s f s 5 s 5 5 s s f f f s 5 s s a i s h 9 9 9 8 8 O ~ _ ",
"[ 6 6 6 g } $.%.` f 6 9 s f f g k k l ] k l l l f s a a 5 5 5 5 5 5 5 5 3 s 5 5 5 5 5 5 5 6 6 6 5 5 6 [ $.{ g g 0 6 0 6 7 ! O + ",
"/ 6 5 6 g ` ' $.0 4 4 4 6 5 4 0 9 9 f g f f d s 6 a a s f s 5 5 f f s s g l f 6 6 5 6 0 ` ` f 6 5 5 s g ' 0 9 6 6 4 5 6 9 8 . o ",
"_ 6 6 6 f 0 ^ ^ ^ 7 7 4 4 4 6 8 8 8 4 4 9 9 6 5 5 s s g { ] s ` { ' f ` ' { { 9 4 6 9 9 ' ' ` ` 9 6 6 6 6 ` } ^ 9 9 9 4 4 4 O ) ",
"{ 4 4 4 4 8 7 / / ^ 0 9 ^ ' ` ' [ ^ ^ ` ^ g 0 9 9 f f f g g s f g 9 9 9 6 6 6 9 6 9 f f s 6 6 s 9 6 g 0 9 g ' ^ 0 ^ 0 0 X   X o ",
"%./ 9 7 7 8 ^ / { ! ^ 0 ^ / / ' ' ` 0 9 f g g g ' { ` g l g l g f s f f f g 9 0 f g ] ] l f s a a s f g g f 9 0 7 6 7 7 0 X . O ",
"S. ./ ^ ^ / ! ^ ! 0 ~ ^ 9 0 0 8 4 4 5 7 7 9 ^ ^ / } ' 0 9 f 9 9 0 g f f f 6 f l ] ] ] ] g l k k f s f f 9 0 g ^ 0 4 4 7 9 ! + + ",
"%.{ 8 0 8 ^ / ! / _ / ! 8 0 /  .) ! ~ ~ o / _ _ ! ! 0 9 7 9 9 9 0 0 0 9 9 6 s s l l ] ] l f f g g g g 0 0 0 ! ~ 8 7 5 7 8 ! _ ( ",
"%./ 8 9 9 0 {  ._ ( _ ~ _ _ _ _ ..} _ } _ { ' ^ ' ' g 6 s 9 9 9 9 s 9 9 6 9 s s s [ { { ] f 9 9 9 9 9 0 ' !   X 7 7 X 7 4 X 4 8 ",
"S.@.' 0 g 9 ' { ` ^ ^ ^ ^ { ^ 0 ' / / { } { ^ 7 9 8 ^ ! 8 ^ ! 0 0 0 0 0 0 9 0 g g { { _ { ^ 0 ^ g g l l [ ' ~ / ^ ^ 8 8 / ~ ! 8 ",
"S.@._ / ^ / } { ^ ^ ^ ^ _ $.^ 4 ^ ~ o o o o O o . o o O . O o ! ! ! ! ~ ! 8 8 ^ / _  . .} _ / ^ / ` ` g ` ' { ` ^ ' 8 X ~  .@.) ",
"o.) # X.+.+.S.+.| ( ( ~ ( } 8 8 0 ~ @ ) ( o O . . o O o o O + ) @ + @ ....o o O O ( _  .} #.@.$.' ` ` ^ ^ } ' 9 9 6 9 4 X X / @.",
"o.# a.A.G.I.G.G.K.A.o._ ~ _ _ { / _ _ { } { @._ # # X.O.| @ # | $ $ $ B.B.$ | # | X.| ....O.#.%.$.$.@. .)  ._ / ` / ! 8 4 X X _ ",
"| @ a.F.F.F.J.H.}.K.X.~ ) ) ( ~ / / ( } @.} ....o.V.B.B.B.X.X.o.B.C.C.C.C.B.Z.P.A.A.Z.Z.o.B.+.+.S.S.E.S...O.) 0 ^ ' ' / ! ! 0 _ ",
"..+.A.f.d.d.d.F.K.G.O.| B.V.V.V.V.X.X.B.Z.Z.P.G.G.oXK.d.s.a.$ $ a.X.o.B.S.D.I.I.I.P.D.Z.+.C.+.Z.A.D.E.D.%..._ 0 0 9 0 ^ ! / { $.",
"A.H.L.J.g.g.g.g.g.d.a.s.d.s.s.s.s.% a.F.F.F.L.[.h.h.OXoX{.J.a.a.d.f.g.[.|.oX[.H.}.oXI.I.D.S.S.D.F.F.A.F.+. . ... ./ ! X 7 0 / $.",
"}.+X.Xl.h.k.+Xk..X}.K.K.J.H.J.J.F.g.[.[.J.[.[.h.l.j.l.l..X$X[.[.h.h..XoX|.|.[.{. X.XXX{.}.L.K.J.J.g.h.j.f.Z.Z.A.A.A.V.% # | #.E.",
"}.OX.Xl.h.h. XOX[.{..X.X$X+X#X+X$X+X#Xn.b.b.v.v.v.v.v.b.b.n.+Xn.n..X+Xk.k.l.l.j.l.k.n..X{.|.OX[.oX|.|.oX|.}.I.I.I.oX$X.XoX|.[.oX",
"h.n.$X+Xn.+X+Xn.b.b.M.m.m.N.N.z.z.z.z.z.z.z.m.z.z.z.z.z.z.z.N.@X@X%Xm.m.z.x.z.x.b.b.v.n.k.l..X$X$X$X$XOX$XoXoXI.I.OX$X$X+X$X$XOX",
"v.m.N.N.N.N.c.z.z.z.z.m.z.z.z.z.z.z.z.m.c.c.c.m.z.z.z.c.m.c.m.@X@XN.z.z.z.z.z.z.z.z.z.z.M.z.N.m.N.@X@X@X@X@X#X$X$X#XM.b.M.M.#XOX",
"c.c.c.z.z.z.z.z.z.z.z.z.z.z.z.m.m.m.m.m.m.m.m.m.m.m.m.m.m.m.m.N.N.z.m.m.z.z.z.z.z.z.z.z.z.z.z.m.c.c.c.m.m.c.N.N.m.m.z.z.z.z.z.x.",
"z.z.c.z.z.z.c.z.z.z.z.z.z.z.m.m.m.m.m.m.m.m.m.m.m.m.m.m.z.z.z.z.m.m.m.m.N.m.z.z.z.z.z.z.z.z.z.z.z.z.z.z.z.z.z.z.z.z.z.z.z.z.z.z.",
"m.m.c.z.z.z.z.z.z.z.z.z.z.m.m.m.m.N.N.m.N.N.m.m.m.N.m.m.N.N.N.N.N.N.N.N.m.N.m.c.z.z.z.z.z.z.z.z.m.z.z.z.c.N.N.m.z.z.z.z.z.z.z.m."
};
