/* XPM */
static char *winter[] = {
/* columns rows colors chars-per-pixel */
"64 64 35 1 ",
"  c #919FBE",
". c #93A1BF",
"X c #96A4C1",
"o c #9AA7C3",
"O c #9DA9C4",
"+ c #A1ADC7",
"@ c #A3AFC8",
"# c #A6B1CA",
"$ c #AAB5CC",
"% c #AEB9CE",
"& c #B0BACF",
"* c #B3BCD1",
"= c #B7C0D4",
"- c #BBC3D6",
"; c #BEC6D8",
": c #BFC8D9",
"> c #C0C7D8",
", c #C4CBDB",
"< c #C8CFDE",
"1 c #CAD1DF",
"2 c #CDD3E1",
"3 c #D1D6E3",
"4 c #D5DAE5",
"5 c #D8DDE7",
"6 c #DADEE8",
"7 c #DDE1EB",
"8 c #E2E5ED",
"9 c #E5E8EF",
"0 c #E7EAF0",
"q c #EBEDF2",
"w c #EEF1F5",
"e c #F1F3F6",
"r c #F4F6F9",
"t c #F7F8FA",
"y c #FBFCFD",
/* pixels */
"yyyyyyyyyyyyyyyyyyyyyyyyyyyyyyyyyyyyyyyyyyyyyyyyyyyyyyyyyyyyyyyy",
"yyyyyyyyyyyyyyyyyyyyyyyyyyyyyyyyyyyyyyyyyyyyyyyyyyyyyyyyyyyyyyyy",
"yyyyyyyyyyyyyyyyyyyyyyyyyyyyyyyyyyyyyyyyyyyyyyyyyyyyyyyyyyyyyyyy",
"yyyytyyyyyyyyyyyyyyyyyyyyyyytyyyyyyyyyyyyyyyyyyyyyyyytyyyyyyyyyy",
"yyryyttyyyyryyyrytttttttyyyttytytttyyytttytttyttyytytttyryttyytt",
"tryyyytrrrrytryyyyyttttttttttrtyttttyyyttrtttttttttttttrtttyyrtt",
"rrryytrrrrrrrrryyttrttrrrrrrryyyyrrrtyyrrrrrtyrrrrrryrrrrrrrrrrr",
"rrtyytrrrrrrreeytttrrtrrerrrrrtytrrerytrrrrryttrerytyttrrrrrrerr",
"errrtrrreeeryrryrttertreeeeerrrrtreeereeeeeryyrreerytyreeeetteee",
"wewrrwwweeeryreerwrwrtreeeewerrrweeweeeeeeeettrweeetytwweerrrtee",
"wwwwwwrwweqrytwwwwwwerwewewweweewwwwwwwwweewwrwwwwrtrtrweeyrytwe",
"qwwqrrtrwqwweewqwwwwwqqwqwwwqwqewwwwwqwwqqwqwqwwqwwwtwwwwqwyreqw",
"qqwqwrtrwqqqqqqqw0wwwwwqqqwqqeqqqqwreqwqqwwqqwwqqwqqwwqqqqyrryqq",
"qqqqqtrrq0wqqqqqw09w000eqqqqqq0qw0etrq0wq0qqq00qqqqqqqqqqqqreqqq",
"q000qwrwqweeq0q00wweewwrrw0000q000wtr00q0q0q00w00q0000q00w0ww9qq",
"0q0000q00wte0q0099rrrqwrr0000000000wq00000000rtw00000000qeqq9q99",
"990808008ere9988q8wrr9wee888q8998899999988q8qerq00080w99eeew9999",
"9880808888ew99888qwwww8w988q889e88998998qq888qeq0870eew8wre99899",
"8800888888888889q88w8888899e88eeeq88889qeqq888888007er08eee07988",
"787788888788879wwq7888788qeqeeqre887879eeee788887878we078q988787",
"787878877787778weq88787877qeq8eeeq877779ee9778778777797877777787",
"777877777777778we868868678eeeq8qq87q968eeee7q8774e07777777777777",
"6674004776677768878qq866498qq94q779q0977qq8qqq880w00777777777777",
"748000086666666666wwwe66677q767677eqeq648849ee88tqwe747474674747",
"667ewww747444746648qe746q6467647648eq774664qqe848ew6666646666664",
"4448ww744487464666eqqe77e784444447eqeq444648qq68rqww444444644664",
"446ewwe474w84468446q96eqqqe44277444q9444446266289q8q644444444444",
"444788747r8qw7wqq626728qqq84469q74274444844624442q62444444478244",
"3432872447wq448wq244246qqq6428qq84422448qq22442426424244427q8q44",
"333333424wqw84wwq62224eq9qe426eq72244228eq2422424224444<244qw722",
"232222227888847862226466e472278872228728q842222682222<86<27q8824",
"222662222,w722272226w8<2q2<2224722<7q8728222226qq82276q77447844<",
"13397331113311111115w8113121311122<4qq4<,222222ww6<<6w8ww<<24<22",
"<3w99w3<1<<<11111113531<1111,155<<24084<222,2,7q88<2<7w82<2<<<<<",
"<<7904<<<31<11<<1,51<1<<115511qq2<<:42<<,2,,<2<672<:6w8wq<<<<<<<",
"<1q999<<1791<<,<15883,<113q03,802<4<<<<<2,,4,,,22,2244866,<<<<<<",
":37777<:<0q<,<,,,8903>3855003,13:887<<<:,24942,,:288,,82:<,<<<<,",
"<,:77:<:<77<,,,,,8081><00355,>33:8q7:::<,,908,,,:<w8,,,,:,,,:::,",
"::<<<::<:<::,,>>,5883>1991><>>q5:988:::<,,997,,,,<64,,:22:,:24<:",
":-44:::::::7,>>:1,4,>,>33>>>8574944:::::-,474,-,::::::2774:,8q2:",
"<:77:<::-18781:>47-,->>->-,,4w898<:::-:=22=2=--47,-,,-2q82::882:",
"7q4797==:>5w7->8850,>1,---5q>498::::::-4982=7:-9q,----3886-:47,-",
":7999,:=->8881=,803=401->-455w78e:=4-==,00,887,48,----<67<:=-:-:",
"=3994==:=>>81-=7088-4w1=----437372478<=28922q8--,=----*,,==----=",
"4e67w4&====,===3444-,4--&>-->&94==497:==22=787,====-,*-=*--=--==",
"<,44,1====&>1&=%13==3,==&7>&-&<>==888:====4-4:=====,8*-=-26=====",
"&%76%$4,&=1551=====187-,4774&&&&==262::==4742$=44%67682$2877*==*",
"=&==&6673%3885%====197==7791&&&-==$2=,62=298-==98=-884**-88,**=*",
"&*&*&,98=&>89>=>&&&175-&577>&&&<4&&&&294&788>&&1<%2888=$3874%***",
"&&&*%6781$476867-&&#,-&45555&#4547-&&384&>53>&&&*$2443,$%,3%***%",
"%%&%&=41=%$,3&88=&&&&&18-5-&&&>582$&&&1&&$>&$&&&$%$-6$$*$*3$%%%%",
"%%%%1:=*%%&1$=67>$&&&#40>&&&&&3775&&$>&$&&&1-$$&:*$**$%$*;8**%%%",
"$%#177=$%&473@=-$$$1>$>1&+-5##,342&&>51-$$<83$$$8:#$$%$$4840,#%$",
"$$$=87&$%&49>$$%$&5351@$#<,5><o=1O$$488>$$182$3>7:3*$$$$%482$%$$",
"$$#,44=@$%351@$$$@>05=$$#775q0,&$$$$187&$$-4>+5946q*$$$@2848;#$#",
"##$O=&@$@O%>+$$@$&5551@$#&57575$$4$$244>$$+&+#$286$@O:3o=>6;*%,$",
"++$$+$+O>=O+$@+&@$>31>@3=555905&&9&&+1#>7O++<+<9575&*,5&*$4O@47>",
"$$OO+O&$4>$$+@=3>$o>$+5553>5>5-92349#&<<3-1>5>9<5,7>q4192O++#48>",
"O++$$O>9348O@O183@@+@+>85O&3o#+>757-+&95393557&+7>@@>581@o**o>4&",
"++++OOO,84%O@.173@+@@@535>O@++@&474$+O&57>O283++,$O@2554$;44>o$o",
"OO+O+O&557<O@+&1&@@+o+@3&@+++O@95259O#75571525=XOOO*91181&86*OO+",
"OOOOO.=11,1OOO.@oO+o++o@+O+oOO@=&7#-O&5,111X5OOOOOOOO>5O+>66>oOO",
"XOOOOOO 5* OOOOOOOOOooOoOOooOOO.$5+oOO.,5XOOOOOOOOOO.*>..&<<&oOO",
"OOOO.OOOOOOOO.OOoooooooooooooooOO@oooOo#&XXOOOO OOOOOo.oO.$$ ooo"
};
